<?xml version="1.0" standalone="no"?><!DOCTYPE svg PUBLIC "-//W3C//DTD SVG 1.1//EN" "http://www.w3.org/Graphics/SVG/1.1/DTD/svg11.dtd"><svg t="1550482964115" class="icon" style="" viewBox="0 0 1024 1024" version="1.1" xmlns="http://www.w3.org/2000/svg" p-id="15709" xmlns:xlink="http://www.w3.org/1999/xlink" width="300" height="300"><defs><style type="text/css"></style></defs><path d="M880 128a32 32 0 0 1 32 32v704a32 32 0 1 1-64 0V160c0-17.664 14.208-32 32-32z m-128.096 319.936c45.44 34.08 45.536 93.984 0 128.128L214.496 979.136C165.184 1016.128 112 989.76 112 928.256V95.744c0-61.728 52.992-88 102.496-50.88l537.408 403.072z m-38.4 76.928c11.36-8.512 11.36-17.216 0-25.728L176.096 96.064 176 928l537.504-403.136z" p-id="15710"></path></svg>