<?xml version="1.0" standalone="no"?><!DOCTYPE svg PUBLIC "-//W3C//DTD SVG 1.1//EN" "http://www.w3.org/Graphics/SVG/1.1/DTD/svg11.dtd"><svg t="1550483597445" class="icon" style="" viewBox="0 0 1024 1024" version="1.1" xmlns="http://www.w3.org/2000/svg" p-id="3438" xmlns:xlink="http://www.w3.org/1999/xlink" width="300" height="300"><defs><style type="text/css"></style></defs><path d="M289 1024H28.2c-5.9 0-11.1-2.9-15.5-7.1-0.7-0.5-1.2-1-1.8-1.6-0.5-0.6-1.1-1.2-1.6-1.9-4.2-4.4-7.1-9.6-7.1-15.5V737.1c0-14.4 14.7-26.1 32.9-26.1S68 722.7 68 737.1v174.7L358.7 621c10.3-10.3 29-8.2 41.9 4.7 12.8 12.8 14.9 31.6 4.6 41.8L114.4 958.3H289c14.4 0 26.1 14.7 26.1 32.9 0 18.1-11.7 32.8-26.1 32.8zM735 0h260.8c5.9 0 11.1 2.9 15.5 7.1 0.7 0.5 1.2 1.1 1.9 1.6 0.5 0.6 1.1 1.2 1.6 1.9 4.2 4.4 7.1 9.6 7.1 15.5v260.8c0 14.4-14.7 26.1-32.9 26.1s-32.9-11.7-32.9-26.1V112.3L665.3 403.1c-10.3 10.3-29 8.2-41.9-4.7-12.8-12.8-14.9-31.6-4.6-41.8L909.6 65.8H735c-14.4 0-26.1-14.7-26.1-32.9S720.5 0 735 0z" p-id="3439"></path></svg>