<?xml version="1.0" standalone="no"?><!DOCTYPE svg PUBLIC "-//W3C//DTD SVG 1.1//EN" "http://www.w3.org/Graphics/SVG/1.1/DTD/svg11.dtd"><svg t="1550759110578" class="icon" style="" viewBox="0 0 1024 1024" version="1.1" xmlns="http://www.w3.org/2000/svg" p-id="6178" xmlns:xlink="http://www.w3.org/1999/xlink" width="1000" height="1000"><defs><style type="text/css"></style></defs><path d="M942.380043 960.108138H80.189862c-8.798879-0.599924-15.598013-7.898994-15.598013-16.697873V378.582209h891.186487v564.828056c0 8.798879-6.799134 16.197937-15.598013 16.697873h2.19972zM162.679355 80.420187c0-26.496625 21.397275-47.993887 47.8939-47.993887 25.096803 1.799771 44.59432 22.697109 44.59432 47.993887v142.8818c1.299834 26.096676-18.497644 48.393836-44.59432 50.193607-26.496625 0-47.8939-21.497262-47.8939-47.993887V80.420187z m602.623243 0c-0.299962-12.698383 4.499427-25.096803 13.198318-34.295632 8.798879-9.198828 20.797351-14.598141 33.595721-14.798115 26.496625 0 47.8939 21.497262 47.8939 47.993887v143.98166c0.599924 13.098332-4.199465 25.896701-13.198319 35.395492-9.098841 9.49879-21.597249 14.898102-34.695581 14.798115-26.496625 0-47.8939-21.497262-47.893899-47.993887l1.09986-145.08152zM943.479903 94.91834h-48.99376V80.420187c0-21.697236-8.698892-42.494587-24.296905-57.592665A79.833831 79.833831 0 0 0 812.096637 0.030426c-44.294358 0-80.189786 35.995415-80.189786 80.389761v14.498153H286.263614V80.420187c0-44.394345-35.895428-80.389761-80.189786-80.389761s-80.189786 35.995415-80.189786 80.389761v14.498153H80.189862c-21.297287 0-41.694689 8.498917-56.692778 23.497007S0.000076 153.910826 0.000076 175.208113v768.002177c0 21.297287 8.498917 41.794676 23.497008 56.792767 14.99809 15.098077 35.395492 23.497007 56.692778 23.497007h862.190181c21.497262 0.299962 42.194626-7.998981 57.392689-23.097058a80.339767 80.339767 0 0 0 23.896956-57.192716v-767.90219c0.099987-44.394345-35.895428-80.389761-80.189785-80.38976z" fill="#CCCCCC" p-id="6179"></path></svg>