<?xml version="1.0" standalone="no"?><!DOCTYPE svg PUBLIC "-//W3C//DTD SVG 1.1//EN" "http://www.w3.org/Graphics/SVG/1.1/DTD/svg11.dtd"><svg t="1550988840516" class="icon" style="" viewBox="0 0 1024 1024" version="1.1" xmlns="http://www.w3.org/2000/svg" p-id="7849" xmlns:xlink="http://www.w3.org/1999/xlink" width="300" height="300"><defs><style type="text/css"></style></defs><path d="M803.6 322.6H673.3c3.5-21.4 5.4-43.3 5.4-65v-69.9c0-79.9-65-144.7-144.7-144.7-79.9 0-144.7 65-144.7 144.7v69.9c0 73.5-59.6 124.9-144.9 124.9h-79.9c-63.3 0-114.9 51.4-114.9 114.9v339.7C49.6 900.4 101 952 164.5 952h94.9V452.1c116.6-6.3 199.8-86 199.8-194.4v-69.9c0-41.4 33.7-75.1 75.1-75.1s75.1 33.7 75.1 75.1v69.9c0 30.6-4.3 61-12.7 90.2l-12.9 44.7h220.3c46.9 0 85 38.1 85 85 0 12-3.6 50.4-36.8 144.9l-1.4 4c-84.4 256-95.6 256-167 256H384c-19.3 0-34.9 15.6-34.9 34.9 0 19.3 15.6 34.9 34.9 34.9h299.7c123 0 148-45.9 233-303.6l1-3c18.6-52.8 40.8-124.9 40.8-168-0.1-85.6-69.6-155.1-154.9-155.1zM189.2 452.4v429.9h-25c-24.8 0-45-20.2-45-45V497.4c0-24.8 20.2-45 45-45h25z" fill="#999999" p-id="7850"></path></svg>