<?xml version="1.0" standalone="no"?><!DOCTYPE svg PUBLIC "-//W3C//DTD SVG 1.1//EN" "http://www.w3.org/Graphics/SVG/1.1/DTD/svg11.dtd"><svg t="1550482674372" class="icon" style="" viewBox="0 0 1024 1024" version="1.1" xmlns="http://www.w3.org/2000/svg" p-id="3816" xmlns:xlink="http://www.w3.org/1999/xlink" width="300" height="300"><defs><style type="text/css"></style></defs><path d="M8.704 444.928c0 31.744 4.608 62.976 12.8 93.184 4.608 16.896 20.992 28.672 38.4 28.672 4.096 0 7.168-0.512 11.264-2.048 21.504-5.632 33.792-27.136 28.16-48.128-6.656-23.552-9.728-47.616-9.728-72.192 0-148.48 122.88-269.312 274.944-269.312H737.28v69.12c0 22.016 15.36 31.232 34.816 18.944l171.008-103.424c19.456-11.264 19.968-31.232 0.512-43.008l-172.032-107.52c-19.456-12.288-34.816-3.584-34.816 18.432V97.28H364.032C268.8 97.28 179.2 133.12 112.64 198.656 45.568 264.704 8.704 351.744 8.704 444.928zM1013.76 414.208c0-31.744-4.608-62.976-12.8-93.184-4.608-16.896-20.992-28.672-38.4-28.672-4.096 0-7.168 0.512-11.264 2.048-21.504 5.632-33.792 27.136-28.16 48.128 6.656 23.552 9.728 47.616 9.728 72.192 0 148.48-122.88 269.312-274.944 269.312H285.696v-69.12c0-22.016-15.36-31.232-34.816-18.944l-171.008 103.424c-19.456 11.264-19.968 31.232-0.512 43.008L250.88 850.432c19.456 12.288 34.816 3.584 34.816-18.432v-69.632h372.736c94.72 0 184.32-36.352 251.392-101.376 67.072-66.56 103.936-153.6 103.936-246.784z" p-id="3817"></path></svg>