<?xml version="1.0" standalone="no"?><!DOCTYPE svg PUBLIC "-//W3C//DTD SVG 1.1//EN" "http://www.w3.org/Graphics/SVG/1.1/DTD/svg11.dtd"><svg t="1550981620559" class="icon" style="" viewBox="0 0 1024 1024" version="1.1" xmlns="http://www.w3.org/2000/svg" p-id="3761" xmlns:xlink="http://www.w3.org/1999/xlink" width="300" height="300"><defs><style type="text/css"></style></defs><path d="M512 0c-281.943834 0-512 229.431013-512 512 0 281.943834 229.431013 512 512 512 281.943834 0 512-229.431013 512-512s-230.056166-512-512-512z m446.984127 511.374847c0 60.639805-11.8779 119.404151-35.008547 173.79243-22.505495 53.137973-55.013431 100.649573-95.648352 141.909646-40.634921 40.634921-89.396825 73.142857-141.909646 95.648352-55.013431 23.130647-113.152625 35.008547-173.792429 35.008547s-119.404151-11.8779-173.79243-35.008547c-53.137973-22.505495-100.649573-55.013431-141.909646-95.648352-40.634921-40.634921-73.142857-89.396825-95.648352-141.909646-23.130647-55.013431-35.008547-113.152625-35.008547-173.79243s11.8779-119.404151 35.008547-173.792429c22.505495-53.137973 55.013431-100.649573 95.648352-141.909646 40.634921-40.634921 89.396825-73.142857 141.909646-95.648352 55.013431-23.130647 113.152625-35.008547 173.79243-35.008547s119.404151 11.8779 173.792429 35.008547c53.137973 22.505495 100.649573 55.013431 141.909646 95.648352 40.634921 40.634921 73.142857 89.396825 95.648352 141.909646 23.130647 55.013431 35.008547 113.152625 35.008547 173.792429z" p-id="3762"></path><path d="M809.57265 620.776557c-4.376068-2.500611-8.752137-3.125763-13.753358-3.125763-12.503053 0-24.380952 7.501832-29.382174 18.129426 0 0-16.879121 34.383394-56.263736 67.516483-52.512821 45.636142-119.404151 68.141636-197.548229 68.141636-80.644689 0-146.910867-22.505495-198.173383-67.516483-37.509158-33.133089-52.512821-66.266178-52.51282-66.266178-5.001221-11.8779-16.879121-20.004884-30.007326-20.004884-4.376068 0-8.752137 0.625153-12.503053 3.125763-8.126984 3.750916-13.753358 9.377289-17.504273 17.504273-3.125763 8.126984-3.125763 16.879121 0 25.006105 0.625153 2.500611 20.004884 45.636142 68.141636 88.771673 27.506716 25.006105 60.014652 44.385836 95.648352 58.764347 43.760684 17.504274 93.772894 26.25641 146.910867 26.25641 51.887668 0 100.02442-8.752137 143.785103-26.25641 35.6337-13.753358 68.141636-33.758242 96.273505-58.764347 48.136752-41.885226 68.766789-82.520147 70.642246-86.896215 8.752137-17.504274 2.500611-36.258852-13.753357-44.385836zM293.196581 447.60928h8.752137c20.630037 0 37.509158-16.879121 37.509157-37.509158v-68.141636c0-20.630037-16.879121-37.509158-37.509157-37.509158h-8.752137c-20.630037 0-37.509158 16.879121-37.509157 37.509158v68.141636c1.250305 20.630037 17.504274 37.509158 37.509157 37.509158zM722.676435 447.60928h8.752136c20.630037 0 37.509158-16.879121 37.509158-37.509158v-68.141636c0-20.630037-16.879121-37.509158-37.509158-37.509158h-8.752136c-20.630037 0-37.509158 16.879121-37.509158 37.509158v68.141636c0 20.630037 16.879121 37.509158 37.509158 37.509158z" p-id="3763"></path></svg>