<?xml version="1.0" standalone="no"?><!DOCTYPE svg PUBLIC "-//W3C//DTD SVG 1.1//EN" "http://www.w3.org/Graphics/SVG/1.1/DTD/svg11.dtd"><svg t="1550482576983" class="icon" style="" viewBox="0 0 1024 1024" version="1.1" xmlns="http://www.w3.org/2000/svg" p-id="2871" xmlns:xlink="http://www.w3.org/1999/xlink" width="300" height="300"><defs><style type="text/css"></style></defs><path d="M736.25 39.363c-88.104 0-169.783 44.344-224.05 117.273C458.527 83.702 376.259 39.363 288.154 39.363 129.459 39.363 0.512 180.557 0.512 353.843c0 103.27 46.09 176.205 83.43 234.547 107.94 169.79 379.833 380.411 391.496 389.166a58.808 58.808 0 0 0 36.757 12.836c12.835 0 25.671-4.085 36.756-12.836 11.674-8.755 282.977-219.965 391.5-389.166 37.346-58.347 83.436-131.276 83.436-234.547 0.005-173.286-128.937-314.48-287.636-314.48z m130.105 547.276c-99.763 140.027-310.973 299.894-321.48 307.477-9.917 7.588-21.59 11.673-32.675 11.673-11.669 0-22.754-3.502-32.671-11.673-10.506-7.578-217.63-169.196-321.485-313.308C124.79 528.297 71.695 462.95 71.695 370.77c0-155.203 86.35-264.305 228.132-264.305 78.766 0 164.537 75.264 212.373 140.61 48.43-65.346 133.611-140.61 212.377-140.61 142.362 0 234.553 109.102 234.553 264.305 0 92.175-58.937 163.942-92.775 215.87z" p-id="2872"></path></svg>