<?xml version="1.0" standalone="no"?><!DOCTYPE svg PUBLIC "-//W3C//DTD SVG 1.1//EN" "http://www.w3.org/Graphics/SVG/1.1/DTD/svg11.dtd"><svg t="1550552245227" class="icon" style="" viewBox="0 0 1024 1024" version="1.1" xmlns="http://www.w3.org/2000/svg" p-id="6424" xmlns:xlink="http://www.w3.org/1999/xlink" width="300" height="300"><defs><style type="text/css"></style></defs><path d="M492.747517 434.156074c8.665357-0.192382 18.197454-0.384763 28.596292-0.577145 10.399861-0.193405 22.723537-0.289596 36.9741-0.289596 14.635325 0 27.056216 0.097214 37.261649 0.289596 10.205433 0.192382 19.160385 0.384763 26.861788 0.577145 7.703449 0.192382 15.021112 0.577145 21.952988 1.154289 6.931876 0.578168 14.440897 1.251503 22.527063 2.022053l0-51.413973c-8.472975 1.155313-16.175401 2.118244-23.107277 2.888793-6.932899 0.77055-14.344706 1.251503-22.24156 1.443885-7.893784 0.192382-16.848737 0.38374-26.861788 0.577145-10.013051 0.193405-22.144346 0.289596-36.393885 0.289596-13.480013 0-25.226544-0.097214-35.239596-0.289596-10.013051-0.193405-19.545148-0.480954-28.596292-0.86674-9.051143-0.384763-17.908882-0.962931-26.574239-1.733481-8.665357-0.771573-18.390859-1.541099-29.173436-2.311649l0 51.414997c10.397814-0.771573 19.833721-1.444908 28.306696-2.022053S484.08216 434.348456 492.747517 434.156074z" p-id="6425"></path><path d="M666.924465 437.33344 666.921395 437.33344 666.921395 437.33344Z" p-id="6426"></path><path d="M437.57494 629.126604c-2.696412-6.547113-5.006014-15.404852-6.932899-26.574239-7.316639 8.857738-14.922874 17.426905-22.818705 25.707498-7.893784 8.281617-16.848737 17.427928-26.861788 27.442002L380.961548 483.546971c0-13.863752 0.480954-26.957978 1.443885-39.282678 0.962931-12.323677 2.406816-23.299659 4.332678-32.927947-8.472975 1.923816-17.908882 3.177366-28.306696 3.75451-10.398838 0.577145-22.145369 0.86674-35.239596 0.86674s-24.26259-0.289596-33.506115-0.86674c-9.243525-0.577145-17.908882-1.828648-25.997094-3.75451l0 53.726645c7.317663-1.155313 16.174378-2.022053 26.574239-2.599198 10.399861-0.577145 24.840758-0.86674 43.327808-0.86674l0 176.199001c0 15.019065-2.214435 29.173436-6.643304 42.460044-4.428869 13.287631-11.842723 24.937972-22.24156 34.951023 6.931876 6.548136 13.190417 13.673417 18.774599 21.375843 5.584182 7.701402 11.072173 16.560164 16.464997 26.574239 3.465938-5.006014 6.643304-9.532097 9.532097-13.57518 2.888793-4.045129 5.776563-7.895831 8.665357-11.55415s6.066159-7.317663 9.532097-10.975982c3.466961-3.659343 7.318686-7.608282 11.55415-11.843746l-0.001023-0.001023 69.901023-69.325925C444.122053 641.257899 440.270329 635.673717 437.57494 629.126604z" p-id="6427"></path><path d="M360.16592 363.388311 360.16592 363.388311l50.836829-29.463032c-10.013051-16.176424-19.448958-31.196513-28.306696-45.060265-8.858762-13.863752-17.715477-26.957978-26.574239-39.282678l-47.370891 27.729551c8.472975 11.55415 16.945951 24.455995 25.418926 38.705534C342.641801 330.266959 351.307158 346.057597 360.16592 363.388311z" p-id="6428"></path><path d="M639.774105 682.276105c-0.771573-5.006014-1.444908-10.495028-2.022053-16.464997-0.578168-5.969968-1.155313-11.939937-1.733481-17.909905-0.577145-5.967922-0.962931-11.745509-1.154289-17.32969-0.193405-5.583159-0.289596-10.301623-0.289596-14.153348L634.574686 543.051203c0-12.3247 0.480954-24.166399 1.443885-35.529191 0.961908-11.360745 2.214435-20.123316 3.75451-26.284643-4.236488 0.771573-8.569166 1.444908-12.998035 2.022053-4.428869 0.577145-9.82067 1.059122-16.175401 1.443885-6.353708 0.384763-13.959943 0.577145-22.818705 0.577145l-32.350802 0c-13.095249 0-24.457018-0.097214-34.085306-0.289596s-18.005073-0.384763-25.130354-0.577145c-7.124258-0.192382-13.382798-0.576121-18.774599-1.154289-5.392824-0.578168-10.399861-1.251503-15.020088-2.022053 1.155313 6.547113 2.118244 15.789615 2.888793 27.729551 0.769526 11.939937 1.154289 23.493064 1.154289 34.662451l0 82.610486c0 14.634302-0.480954 28.788673-1.443885 42.460044-0.963954 13.672394-2.792603 26.670429-5.489014 38.995129l51.992141 0 0-54.30379 77.989235 0 0 28.884864L639.774105 682.276105zM511.523139 616.420211l0-89.543386 77.989235 0 0 89.543386L511.523139 616.420211z" p-id="6429"></path><path d="M727.581963 285.398052c-10.399861 0.77055-21.759583 1.251503-34.085306 1.443885-12.3247 0.192382-26.574239 0.385786-42.74964 0.577145-16.175401 0.193405-35.624359 0.289596-58.346873 0.289596l-46.215578 0c-12.709463 0-24.167422-0.097214-34.372855-0.289596-10.206456-0.192382-19.448958-0.577145-27.729551-1.154289-8.27957-0.578168-17.042141-1.251503-26.284643-2.022053l0 52.570309c10.013051-1.540076 19.73753-2.791579 29.173436-3.75451 9.435906-0.963954 19.160385-1.734504 29.173436-2.311649 10.013051-0.577145 20.509103-1.059122 31.485085-1.443885 10.977006-0.384763 23.204491-0.577145 36.684504-0.577145l121.896234 0 0 362.215602c0 5.777587-0.771573 10.109242-2.311649 12.998035-1.541099 2.88777-4.813632 4.813632-9.821693 5.776563-5.007037 0.962931-12.227486 1.060145-21.663392 0.289596-9.435906-0.769526-22.049179-2.117221-37.838793-4.043083 8.858762 10.398838 15.405875 21.663392 19.641339 33.795711 4.236488 12.131295 6.354731 23.396873 6.354731 33.795711 22.338774-2.695389 39.86187-5.584182 52.570309-8.665357 12.709463-3.081175 22.336728-6.933923 28.884864-11.55415 6.547113-4.622274 10.68741-10.68741 12.420891-18.197454 1.733481-7.510044 2.599198-17.042141 2.599198-28.596292L757.046019 326.992379c0-6.547113 0.192382-12.323677 0.577145-17.32969 0.384763-5.006014 0.673335-9.629311 0.86674-13.864776 0.193405-4.235464 0.673335-8.665357 1.443885-13.286608l-0.001023-0.001023C748.764402 283.665595 737.980801 284.626479 727.581963 285.398052z" p-id="6430"></path><path d="M511.811712 63.851237c-247.267617 0-447.716928 200.449311-447.716928 447.716928 0 247.266593 200.449311 447.716928 447.716928 447.716928 247.266593 0 447.716928-200.449311 447.716928-447.716928C959.527616 264.300548 759.078305 63.851237 511.811712 63.851237zM511.811712 914.512377c-222.184335 0-402.945235-180.759877-402.945235-402.945235S289.627377 108.62293 511.811712 108.62293s402.945235 180.759877 402.945235 402.945235S733.996047 914.512377 511.811712 914.512377z" p-id="6431"></path></svg>