<?xml version="1.0" standalone="no"?><!DOCTYPE svg PUBLIC "-//W3C//DTD SVG 1.1//EN" "http://www.w3.org/Graphics/SVG/1.1/DTD/svg11.dtd"><svg t="1550552241900" class="icon" style="" viewBox="0 0 1024 1024" version="1.1" xmlns="http://www.w3.org/2000/svg" p-id="6299" xmlns:xlink="http://www.w3.org/1999/xlink" width="300" height="300"><defs><style type="text/css"></style></defs><path d="M510.896876 958.306812c247.109004 0 447.430402-200.321398 447.430402-447.430402s-200.321398-447.430402-447.430402-447.430402-447.430402 200.321398-447.430402 447.430402S263.787872 958.306812 510.896876 958.306812zM490.112504 645.971247l0 54.268998L438.153108 700.240245c2.694365-12.316513 4.52199-25.306362 5.484921-38.969547 0.961908-13.663184 1.442862-27.808346 1.442862-42.433438l0-82.558297c0-11.162224-0.384763-22.708188-1.154289-34.639938-0.769526-11.93175-1.732457-21.169135-2.886747-27.712155 4.618181 0.769526 9.622148 1.442862 15.010879 2.02103s11.643178 0.961908 18.763342 1.154289c7.120165 0.192382 15.491833 0.384763 25.113981 0.577145 9.622148 0.192382 20.97573 0.288572 34.062793 0.288572l32.330336 0c8.852622 0 16.45374-0.192382 22.804379-0.577145 6.350638-0.384763 11.739369-0.865717 16.165168-1.442862s8.756431-1.25048 12.989849-2.02103c-1.539053 6.158257-2.790556 14.914688-3.752464 26.26827-0.961908 11.354606-1.442862 23.189142-1.442862 35.505655l0 73.320912c0 3.848655 0.096191 8.56405 0.288572 14.144138 0.192382 5.581112 0.577145 11.354606 1.154289 17.319457 0.577145 5.965875 1.154289 11.93175 1.732457 17.897625 0.577145 5.965875 1.25048 11.450796 2.02103 16.45374L568.051597 674.836669l0-28.866445L490.112504 645.970224zM568.051597 609.022731l0-89.48608-77.939093 0 0 89.48608L568.051597 609.022731zM357.904413 707.746196c-4.233418 4.233418-8.082072 8.179286-11.546987 11.835559-3.463891 3.656273-6.639211 7.312546-9.525957 10.968819-2.886747 3.656273-5.773494 7.504928-8.66024 11.546987-2.886747 4.041036-6.062066 8.56405-9.525957 13.566994-5.38873-10.006911-10.872628-18.859533-16.45374-26.556842-5.581112-7.697309-11.835559-14.818497-18.763342-21.361517 10.391674-10.006911 17.801435-21.650089 22.227234-34.92851 4.425799-13.278421 6.639211-27.42256 6.639211-42.433438L312.294632 454.29781c-18.47477 0-32.907481 0.288572-43.300178 0.865717s-19.244296 1.442862-26.556842 2.598174l0-53.691853c8.083096 1.924839 16.742313 3.175319 25.979698 3.752464 9.237385 0.577145 20.398586 0.865717 33.484625 0.865717 13.08604 0 24.825408-0.288572 35.217083-0.865717 10.391674-0.577145 19.821441-1.828648 28.2893-3.752464-1.924839 9.622148-3.367701 20.590967-4.329609 32.907481-0.961908 12.316513-1.442862 25.402553-1.442862 39.258119l0 172.044378c10.006911-10.006911 18.955724-19.148106 26.845415-27.423583 7.890714-8.275477 15.491833-16.838503 22.804379-25.691125 1.924839 11.162224 4.233418 20.013823 6.927783 26.556842 2.694365 6.54302 6.54302 12.124132 11.546987 16.742313L357.904413 707.746196zM738.364541 275.326673c-0.769526 4.618181-1.25048 9.045003-1.442862 13.278421-0.192382 4.233418-0.480954 8.852622-0.865717 13.855566s-0.577145 10.776438-0.577145 17.319457l0 23.670096 0 355.63472c0 11.546987-0.865717 21.072945-2.598174 28.577872-1.732457 7.504928-5.869684 13.566994-12.412704 18.186198-6.54302 4.618181-16.165168 8.467859-28.866445 11.546987s-30.213116 5.965875-52.53654 8.66024c0-10.391674-2.117221-21.650089-6.350638-33.774221-4.233418-12.124132-10.776438-23.381523-19.629059-33.774221 15.780405 1.924839 28.385491 3.27151 37.815257 4.041036 9.429767 0.769526 16.646122 0.673335 21.650089-0.288572 5.003967-0.961908 8.275477-2.886747 9.81453-5.773494 1.539053-2.886747 2.309602-7.216355 2.309602-12.989849L684.674735 321.512574 562.856271 321.512574c-13.470803 0-25.691125 0.192382-36.660968 0.577145-10.968819 0.384763-21.457708 0.865717-31.464619 1.442862-10.006911 0.577145-19.72525 1.346671-29.155017 2.309602-9.429767 0.961908-19.148106 2.213411-29.155017 3.752464l0-52.53654c9.237385 0.769526 17.993816 1.442862 26.26827 2.02103 8.275477 0.577145 17.511839 0.961908 27.712155 1.154289 10.199293 0.192382 21.650089 0.288572 34.351366 0.288572l46.185902 0c22.708188 0 42.144866-0.096191 58.310034-0.288572 16.165168-0.192382 30.405497-0.384763 42.72201-0.577145 12.316513-0.192382 23.670096-0.673335 34.062793-1.442862C716.425879 277.44287 727.202317 276.480962 738.364541 275.326673L738.364541 275.326673zM645.414569 430.05057c-8.083096-0.769526-15.588023-1.442862-22.515806-2.02103-6.927783-0.577145-14.240329-0.961908-21.938662-1.154289-7.697309-0.192382-16.646122-0.384763-26.845415-0.577145-10.199293-0.192382-22.611997-0.288572-37.238113-0.288572-14.241352 0-26.556842 0.096191-36.94954 0.288572-10.391674 0.192382-19.917632 0.384763-28.577872 0.577145-8.66024 0.192382-17.223267 0.577145-25.691125 1.154289-8.467859 0.577145-17.897625 1.25048-28.2893 2.02103l0-51.382251c10.776438 0.769526 20.494777 1.539053 29.155017 2.309602 8.66024 0.769526 17.511839 1.346671 26.556842 1.732457 9.045003 0.384763 18.570961 0.673335 28.577872 0.865717 10.006911 0.192382 21.74628 0.288572 35.217083 0.288572 14.241352 0 26.364461-0.096191 36.371372-0.288572s18.955724-0.384763 26.845415-0.577145c7.890714-0.192382 15.299451-0.673335 22.227234-1.442862 6.927783-0.769526 14.625092-1.732457 23.092951-2.886747L645.412522 430.05057zM338.852498 356.152513c-8.852622-17.320481-17.511839-33.099862-25.979698-47.341215-8.467859-14.241352-16.934694-27.133987-25.402553-38.680974l47.341215-27.712155c8.852622 12.316513 17.704221 25.402553 26.556842 39.258119s18.282389 28.866445 28.2893 45.031613L338.852498 356.152513z" p-id="6300"></path></svg>