<?xml version="1.0" standalone="no"?><!DOCTYPE svg PUBLIC "-//W3C//DTD SVG 1.1//EN" "http://www.w3.org/Graphics/SVG/1.1/DTD/svg11.dtd"><svg t="1550483035791" class="icon" style="" viewBox="0 0 1024 1024" version="1.1" xmlns="http://www.w3.org/2000/svg" p-id="17951" xmlns:xlink="http://www.w3.org/1999/xlink" width="300" height="300"><defs><style type="text/css"></style></defs><path d="M512 0C229.229714 0 0 229.229714 0 512s229.229714 512 512 512 512-229.229714 512-512S794.770286 0 512 0z m0 969.929143C259.108571 969.929143 54.070857 764.891429 54.070857 512 54.070857 259.108571 259.108571 54.070857 512 54.070857 764.891429 54.070857 969.929143 259.108571 969.929143 512c0 252.891429-205.019429 457.929143-457.929143 457.929143z m-149.284571-275.2a36.992 36.992 0 0 1-36.900572-36.900572v-295.131428c0-20.278857 16.603429-36.882286 36.900572-36.882286 20.297143 0 36.882286 16.603429 36.882285 36.900572v295.113142c0 20.297143-16.603429 36.882286-36.882285 36.882286z m279.259428 0a36.992 36.992 0 0 1-36.882286-36.900572v-295.131428c0-20.278857 16.603429-36.882286 36.882286-36.882286 20.297143 0 36.900571 16.603429 36.900572 36.900572v295.113142c0 20.297143-16.603429 36.882286-36.900572 36.882286z" fill="#707070" p-id="17952"></path></svg>