<?xml version="1.0" standalone="no"?><!DOCTYPE svg PUBLIC "-//W3C//DTD SVG 1.1//EN" "http://www.w3.org/Graphics/SVG/1.1/DTD/svg11.dtd"><svg t="1550981744632" class="icon" style="" viewBox="0 0 1024 1024" version="1.1" xmlns="http://www.w3.org/2000/svg" p-id="5131" xmlns:xlink="http://www.w3.org/1999/xlink" width="300" height="300"><defs><style type="text/css"></style></defs><path d="M838.948571 184.027429a136.704 136.704 0 0 0-188.708571 0L203.337143 631.954286a32.109714 32.109714 0 0 0-8.777143 15.433143l-47.542857 188.781714a33.718857 33.718857 0 0 0 24.137143 40.521143 34.450286 34.450286 0 0 0 16.822857 0l187.977143-47.177143a29.988571 29.988571 0 0 0 15.36-8.850286l447.634285-447.780571a134.363429 134.363429 0 0 0 0-188.854857z m-487.862857 582.948571l-125.805714 31.451429 31.451429-125.878858 370.102857-370.541714 94.354285 94.500572z m440.32-441.344l-23.405714 23.552-94.354286-94.354286 23.405715-23.625143a68.388571 68.388571 0 0 1 94.354285 0 66.340571 66.340571 0 0 1 0 94.427429z" fill="#788192" p-id="5132"></path></svg>