<?xml version="1.0" standalone="no"?><!DOCTYPE svg PUBLIC "-//W3C//DTD SVG 1.1//EN" "http://www.w3.org/Graphics/SVG/1.1/DTD/svg11.dtd"><svg t="1550482871910" class="icon" style="" viewBox="0 0 1024 1024" version="1.1" xmlns="http://www.w3.org/2000/svg" p-id="12522" xmlns:xlink="http://www.w3.org/1999/xlink" width="300" height="300"><defs><style type="text/css"></style></defs><path d="M144 896a32 32 0 0 1-32-32l0-704a32 32 0 1 1 64 0L176 864c0 17.664-14.208 32-32 32z m128.09600001-319.936c-45.44-34.08-45.536-93.984 0-128.128L809.504 44.86399999C858.816 7.872 911.99999999 34.24 912 95.74400001L912 928.25599999c0 61.728-52.99199999 88-102.496 50.88000002l-537.40799999-403.07200001z m38.39999999-76.928c-11.36 8.51200001-11.36 17.216 0 25.728L847.904 927.936 848 96.00000001l-537.504 403.13599999z" p-id="12523"></path></svg>