<?xml version="1.0" standalone="no"?><!DOCTYPE svg PUBLIC "-//W3C//DTD SVG 1.1//EN" "http://www.w3.org/Graphics/SVG/1.1/DTD/svg11.dtd"><svg t="1550482724767" class="icon" style="" viewBox="0 0 1024 1024" version="1.1" xmlns="http://www.w3.org/2000/svg" p-id="5309" xmlns:xlink="http://www.w3.org/1999/xlink" width="300" height="300"><defs><style type="text/css"></style></defs><path d="M671.719024 396.00078c-32.705561 0-114.250927 79.747122-173.79278 136.266927-90.286829 85.703805-175.553561 168.984976-243.799415 168.984976h-41.984c-17.158244 0-31.069659-13.674146-31.069658-30.520195 0-16.858537 13.911415-30.532683 31.069658-30.532683h41.984c43.12039 0 130.44761-85.229268 200.616586-151.83922 85.39161-81.070829 159.144585-153.412683 216.975609-153.412683h40.060878l-42.508487-40.497951c-12.150634-11.900878-12.163122-30.045659-0.049952-41.971512a31.469268 31.469268 0 0 1 43.944586-0.049951l95.656585 93.770927c5.844293 5.719415 9.128585 13.474341 9.128586 21.566439 0 8.104585-3.284293 15.834537-9.116098 21.566439l-95.681561 93.696a31.107122 31.107122 0 0 1-21.941073 8.778927 31.569171 31.569171 0 0 1-21.978537-9.240976 30.819902 30.819902 0 0 1 0.037464-43.732293l42.508487-42.833171H671.719024z m41.434537 157.021659a31.469268 31.469268 0 0 0-43.932098 0.049951c-12.113171 11.925854-12.100683 32.393366 0.049952 44.294244l42.508487 42.833171H671.719024c-25.512585 0-68.133463-37.08878-110.392195-75.900878-12.537756-11.513756-32.193561-11.451317-43.919609 0.861658-11.713561 12.300488-11.064195 32.493268 1.47356 43.994537 64.387122 59.154732 107.80722 92.097561 152.850732 92.097561h40.060878l-42.508488 40.497951a29.433756 29.433756 0 0 0-0.049951 42.558439c6.069073 5.969171 14.036293 8.666537 21.991025 8.666537 7.942244 0 15.884488-3.121951 21.941073-9.066147l95.681561-93.845853c5.831805-5.719415 9.116098-13.524293 9.116097-21.628878s-3.284293-15.884488-9.116097-21.603903l-95.681561-93.80839z m-501.010732-157.021659h41.984c32.743024 0 81.545366 40.947512 120.407415 75.601171 5.956683 5.307317 13.42439 8.504195 20.87961 8.504195 8.454244 0 16.871024-3.072 23.002536-9.703024 11.538732-12.475317 10.589659-32.792976-2.110439-44.119415-60.765659-54.197073-111.603512-91.335805-162.179122-91.335805h-41.984c-17.158244 0-31.069659 13.686634-31.069658 30.532683 0 16.846049 13.911415 30.520195 31.069658 30.520195z" p-id="5310"></path></svg>