<?xml version="1.0" standalone="no"?><!DOCTYPE svg PUBLIC "-//W3C//DTD SVG 1.1//EN" "http://www.w3.org/Graphics/SVG/1.1/DTD/svg11.dtd"><svg t="1550988868716" class="icon" style="" viewBox="0 0 1024 1024" version="1.1" xmlns="http://www.w3.org/2000/svg" p-id="8586" xmlns:xlink="http://www.w3.org/1999/xlink" width="300" height="300"><defs><style type="text/css"></style></defs><path d="M896 0H128C57.6 0 0 57.6 0 128v553.6C0 752 57.6 816 128 816h112v208l296-208h360c70.4 0 128-64 128-134.4V128c0-70.4-57.6-128-128-128z m80 681.6c0 44.8-35.2 86.4-80 86.4H520l-16 6.4-216 155.2V768H128c-44.8 0-80-43.2-80-86.4V128c0-44.8 35.2-80 80-80h768c44.8 0 80 35.2 80 80v553.6z" p-id="8587"></path><path d="M764.8 342.4h-528c-12.8 0-24-11.2-24-24s11.2-24 24-24h528c12.8 0 24 11.2 24 24-1.6 12.8-11.2 24-24 24z m-224 246.4h-304c-12.8 0-24-11.2-24-24s11.2-24 24-24h304c12.8 0 24 11.2 24 24-1.6 12.8-11.2 24-24 24z" p-id="8588"></path></svg>