<?xml version="1.0" standalone="no"?><!DOCTYPE svg PUBLIC "-//W3C//DTD SVG 1.1//EN" "http://www.w3.org/Graphics/SVG/1.1/DTD/svg11.dtd"><svg t="1550483137133" class="icon" style="" viewBox="0 0 1024 1024" version="1.1" xmlns="http://www.w3.org/2000/svg" p-id="20448" xmlns:xlink="http://www.w3.org/1999/xlink" width="300" height="300"><defs><style type="text/css"></style></defs><path d="M985.6 625.84a38.4 38.4 0 0 0-38.4 38.4v99.45c0 101.19-86.35 183.51-192.48 183.51H269.27c-106.12 0-192.47-82.32-192.47-183.51V276.55c0-110.14 86.35-199.75 192.47-199.75h85.93a38.4 38.4 0 1 0 0-76.8h-85.93C120.8 0 0 124.06 0 276.55v487.14C0 907.23 120.8 1024 269.27 1024h485.46C903.2 1024 1024 907.23 1024 763.69v-99.45a38.4 38.4 0 0 0-38.4-38.4z" p-id="20449"></path><path d="M1024 300.08a38.14 38.14 0 0 0-7-22.06 38 38 0 0 0-7.42-10.76L806.4 73.7a38.4 38.4 0 1 0-54.3 54.3l143.26 133.68H595.2c-165.86 0-300.8 129.52-300.8 288.72v149a38.4 38.4 0 1 0 76.8 0v-149c0-116.85 100.49-211.92 224-211.92H884l-131.91 108a38.4 38.4 0 1 0 54.3 54.3l187-163.08a38.4 38.4 0 0 0 30.61-37.62z" p-id="20450"></path></svg>