<?xml version="1.0" standalone="no"?><!DOCTYPE svg PUBLIC "-//W3C//DTD SVG 1.1//EN" "http://www.w3.org/Graphics/SVG/1.1/DTD/svg11.dtd"><svg t="1550482690715" class="icon" style="" viewBox="0 0 1024 1024" version="1.1" xmlns="http://www.w3.org/2000/svg" p-id="4568" xmlns:xlink="http://www.w3.org/1999/xlink" width="300" height="300"><defs><style type="text/css"></style></defs><path d="M720.535243 903.335445H149.97506l54.885186 51.198867a38.32601 38.32601 0 0 1 18.314567 32.884302 43.475153 43.475153 0 0 1-43.884744 36.57062 54.475595 54.475595 0 0 1-32.942814-14.628248L22.007147 899.649126c-14.628248-14.628248-18.256053-40.198425 0-54.826673L146.347255 731.424275c7.314124-7.314124 21.942372-10.941929 32.942814-10.94193A40.549503 40.549503 0 0 1 219.488494 760.680771a45.055004 45.055004 0 0 1-14.628248 29.256496l-47.512549 43.884743h566.815351a225.567583 225.567583 0 0 0 226.737843-226.737843V508.37275a36.57062 36.57062 0 0 1 73.14124 0v98.711417c0 160.910727-135.34055 296.251277-303.506888 296.251278zM303.630176 120.72418h566.815351l-54.885186-51.198868a38.501549 38.501549 0 0 1-18.256053-32.942814 43.41664 43.41664 0 0 1 43.884744-36.57062 54.300056 54.300056 0 0 1 32.884301 14.628248l124.340107 109.71186c14.628248 14.628248 18.314566 40.256938 0 54.885186L877.759651 292.576837c-7.314124 7.314124-21.942372 11.000442-32.884301 11.000442A40.608016 40.608016 0 0 1 804.618412 263.320341a45.055004 45.055004 0 0 1 14.628248-29.256496l47.512549-43.884744H299.943858a234.051967 234.051967 0 0 0-226.737843 234.051967V526.628804a34.522665 34.522665 0 0 1-36.57062 36.57062A34.522665 34.522665 0 0 1 0.064775 526.628804V427.858874c0-171.852657 135.282037-307.134694 303.565401-307.134694z" p-id="4569"></path><path d="M488.121639 351.265368m29.13947 0l0 0q29.13947 0 29.13947 29.139469l0 257.164599q0 29.13947-29.13947 29.13947l0 0q-29.13947 0-29.13947-29.13947l0-257.164599q0-29.13947 29.13947-29.139469Z" p-id="4570"></path><path d="M414.512296 689.528973m0-22.410476l0 0q0-22.410476 22.410476-22.410476l160.793701 0q22.410476 0 22.410476 22.410476l0 0q0 22.410476-22.410476 22.410476l-160.793701 0q-22.410476 0-22.410476-22.410476Z" p-id="4571"></path><path d="M430.968518 460.855424m-13.287537-19.833705l-0.032567-0.048612q-13.287537-19.833705 6.546168-33.121242l77.536175-51.945149q19.833705-13.287537 33.121242 6.546169l0.032568 0.048612q13.287537 19.833705-6.546169 33.121242l-77.536175 51.945149q-19.833705 13.287537-33.121242-6.546169Z" p-id="4572"></path></svg>