<?xml version="1.0" standalone="no"?><!DOCTYPE svg PUBLIC "-//W3C//DTD SVG 1.1//EN" "http://www.w3.org/Graphics/SVG/1.1/DTD/svg11.dtd"><svg t="1550554595961" class="icon" style="" viewBox="0 0 1024 1024" version="1.1" xmlns="http://www.w3.org/2000/svg" p-id="11774" xmlns:xlink="http://www.w3.org/1999/xlink" width="300" height="300"><defs><style type="text/css"></style></defs><path d="M718.336 299.84l-24.192-21.824c-24.128-21.984-44.48-22.432-57.248-18.976-27.136 7.392-36.736 36.128-38.272 41.376l-62.816 282.4c-17.696-21.952-41.984-38.816-71.328-46.272-10.88-2.784-22.048-4.16-33.184-4.16-61.76 0-115.488 41.856-130.656 101.76-18.272 72.096 25.504 145.6 97.6 163.872 10.88 2.784 22.048 4.16 33.184 4.16 61.728 0 115.488-41.824 130.656-101.76 0.064-0.192 0.032-0.384 0.096-0.576 0-0.064 0.064-0.096 0.064-0.16l64.448-290.016 69.664 61.12c5.984 5.664 37.344 33.216 67.392 20.32 19.776-8.512 29.792-29.984 29.792-63.776C793.536 367.296 773.056 348.96 718.336 299.84zM512.544 687.36l-0.16 0.736c-11.232 43.744-57.312 71.616-101.536 60.32-44.736-11.36-71.904-56.96-60.576-101.664 9.408-37.152 42.72-63.136 81.024-63.136 6.912 0 13.824 0.864 20.608 2.56C496.48 597.504 523.552 642.784 512.544 687.36zM741.408 440.8c-3.392-1.984-7.392-4.896-10.624-7.872l-91.424-80.224 8.704-39.136c0.288-0.928 2.176-4.608 0.768-4.928 0.032 0 3.552 0.64 10.816 7.264l24.48 22.08c53.28 47.808 58.208 53.248 58.208 89.344C742.336 433.408 741.92 437.76 741.408 440.8z" p-id="11775"></path><path d="M512 76.768C272 76.768 76.768 272 76.768 512S272 947.232 512 947.232 947.232 752 947.232 512 752 76.768 512 76.768zM512 896.032C300.256 896.032 127.968 723.776 127.968 512S300.256 127.968 512 127.968 896.032 300.256 896.032 512 723.744 896.032 512 896.032z" p-id="11776"></path></svg>