<?xml version="1.0" standalone="no"?><!DOCTYPE svg PUBLIC "-//W3C//DTD SVG 1.1//EN" "http://www.w3.org/Graphics/SVG/1.1/DTD/svg11.dtd"><svg t="1550552685490" class="icon" style="" viewBox="0 0 1024 1024" version="1.1" xmlns="http://www.w3.org/2000/svg" p-id="9530" xmlns:xlink="http://www.w3.org/1999/xlink" width="300" height="300"><defs><style type="text/css"></style></defs><path d="M286.72 948.907c-17.067 0-34.133-6.827-47.787-17.067-23.893-20.48-37.546-54.613-34.133-85.333l37.547-201.387-143.36-136.533c-23.894-23.894-27.307-61.44-23.894-88.747 10.24-37.547 37.547-61.44 68.267-64.853l197.973-37.547 88.747-191.147c20.48-30.72 47.787-47.786 81.92-47.786s61.44 17.066 78.507 47.786l88.746 191.147 197.974 34.133c30.72 6.827 58.026 30.72 68.266 61.44 10.24 30.72 3.414 61.44-17.066 88.747L781.653 645.12l34.134 201.387c3.413 34.133-6.827 64.853-34.134 85.333-17.066 10.24-30.72 17.067-51.2 17.067-17.066 0-34.133-6.827-37.546-10.24L512 843.093l-184.32 92.16c-13.653 10.24-27.307 13.654-40.96 13.654zM512 129.707c-13.653 0-23.893 6.826-30.72 20.48l-102.4 211.626-225.28 44.374c-20.48 3.413-23.893 17.066-27.307 27.306 0 10.24 0 30.72 10.24 40.96l163.84 157.014L256 853.333c-3.413 13.654 3.413 27.307 13.653 37.547 10.24 6.827 23.894 6.827 34.134 0l204.8-105.813 204.8 105.813c3.413 3.413 10.24 3.413 17.066 3.413s13.654 0 20.48-6.826c10.24-6.827 13.654-23.894 13.654-37.547l-40.96-228.693L887.467 460.8c6.826-10.24 10.24-23.893 6.826-40.96-3.413-13.653-17.066-23.893-27.306-27.307l-225.28-40.96-102.4-211.626c-3.414-3.414-13.654-10.24-27.307-10.24z" fill="" p-id="9531"></path></svg>