<?xml version="1.0" standalone="no"?><!DOCTYPE svg PUBLIC "-//W3C//DTD SVG 1.1//EN" "http://www.w3.org/Graphics/SVG/1.1/DTD/svg11.dtd"><svg t="1550552689756" class="icon" style="" viewBox="0 0 1024 1024" version="1.1" xmlns="http://www.w3.org/2000/svg" p-id="9655" xmlns:xlink="http://www.w3.org/1999/xlink" width="300" height="300"><defs><style type="text/css"></style></defs><path d="M292.717096 936.426654c-16.663262 0-33.204894-6.689631-46.462526-16.663262-23.231263-19.947262-36.488894-53.152156-33.204893-83.073049l36.488894-195.945361-139.509205-132.819575c-23.231263-23.231263-26.515263-59.841786-23.231263-86.35705 9.973631-36.488894 36.488894-59.841786 66.409787-63.125787l192.661362-36.488894 86.357049-185.97173c19.947262-29.920893 46.462525-46.462525 79.667419-46.462526 33.204894 0 59.841786 16.663262 76.383418 46.462526l86.35705 185.97173L867.295549 355.15857c29.920893 6.689631 56.436156 29.920893 66.409788 59.841786 9.973631 29.920893 3.284 59.841786-16.663262 86.35705L774.248869 640.744982l33.204894 195.945361c3.284 33.204894-6.689631 63.125787-33.204894 83.073049-16.663262 9.973631-29.920893 16.663262-49.868155 16.663262-16.663262 0-33.204894-6.689631-36.488894-9.973631l-175.9981-93.04668-179.40373 89.64105c-13.257632 9.973631-26.515263 13.379261-39.772894 13.379261z" fill="" p-id="9656"></path><path d="M511.89372 139.265946c-13.257632 0-23.231263 6.689631-29.920893 19.947262l-99.614681 205.918993-219.176625 43.178525c-19.947262 3.284-23.231263 16.663262-26.515263 26.515263 0 9.973631 0 29.920893 9.973631 39.894524l159.334838 152.766837-43.178525 215.892624c-3.284 13.257632 3.284 26.515263 13.257632 36.488894 9.973631 6.689631 23.231263 6.689631 33.204894 0l199.229362-103.020311 199.229362 103.020311c3.284 3.284 9.973631 3.284 16.663262 3.284001s13.257632 0 19.947262-6.689631c9.973631-6.689631 13.257632-23.231263 13.257631-36.488894l-39.894524-222.582255 159.456468-156.050837c6.689631-9.973631 9.973631-23.231263 6.68963-39.894524-3.284-13.257632-16.663262-23.231263-26.515263-26.515263L638.145294 355.15857l-99.614681-205.918993c-3.40563-3.284-13.379261-9.973631-26.636893-9.973631z" fill="" p-id="9657"></path></svg>