<?xml version="1.0" standalone="no"?><!DOCTYPE svg PUBLIC "-//W3C//DTD SVG 1.1//EN" "http://www.w3.org/Graphics/SVG/1.1/DTD/svg11.dtd"><svg t="1550551944149" class="icon" style="" viewBox="0 0 1024 1024" version="1.1" xmlns="http://www.w3.org/2000/svg" p-id="4922" xmlns:xlink="http://www.w3.org/1999/xlink" width="300" height="300"><defs><style type="text/css"></style></defs><path d="M374.34248193 385.83174219c-17.63164599 0-31.92025781 13.54931367-31.92025781 30.26088281v309.75178886c0 16.71876474 14.2886127 30.26088281 31.92025781 30.26088282 17.61725566 0 31.91666045-13.54211807 31.91666046-30.26088281V416.092625c0-16.71156914-14.29940479-30.26088281-31.91666046-30.26088281zM508.8660752 385.83174219c-17.63164599 0-31.92115781 13.54931367-31.92115781 30.26088281v309.75178886c0 16.71876474 14.2886127 30.26088281 31.92115781 30.26088282 17.61725566 0 31.92025781-13.54211807 31.9202578-30.26088281V416.092625c0-16.71156914-14.30300214-30.26088281-31.9202578-30.26088281zM647.18149677 385.83174219c-17.62804776 0-31.91666045 13.54931367-31.91666044 30.26088281v309.75178886c0 16.71876474 14.2886127 30.26088281 31.91666045 30.26088282 17.63164599 0 31.92115781-13.54211807 31.92115781-30.26088281V416.092625c0-16.71156914-14.2886127-30.26088281-31.92115781-30.26088281z" p-id="4923"></path><path d="M866.80808984 261.36243213H691.71030635v-72.23902207c0-38.71694971-31.51013643-70.22258877-70.22618702-70.22258877H400.03985938c-38.71694971 0-70.22618701 31.50653818-70.22618701 70.22258877v72.23902207H154.71678799c-16.55957286 0-29.98836826 14.29940479-29.98836826 31.92385605 0 17.63164599 13.42879541 31.91666045 29.98836826 31.91666046h36.84531885v488.72234618c0 51.14022715 40.09211719 92.75770987 89.37510381 92.75770987h459.64955742c49.28298575 0 89.37510381-41.61658359 89.3751038-92.75770987V325.20294864h36.84531885c16.55957286 0 29.98836826-14.28501445 29.98836826-31.91666046 0.00089912-17.62445039-13.42789629-31.92385605-29.98746914-31.92385605z m-473.15390097-72.23902207c0-3.51661552 2.86905498-6.38207315 6.38567051-6.38207227h221.44336083c3.51661552 0 6.38567051 2.86545762 6.38567052 6.38207227v72.23902207H393.65418887v-72.23902207z m372.4680665 624.80188476c0 14.61059385-11.45823135 26.49693516-25.53458818 26.49693516H280.93721065c-14.07635596 0-25.53458731-11.88634131-25.53458731-26.49693516V325.20294864h510.71873203v488.72234618z" p-id="4924"></path></svg>