<?xml version="1.0" standalone="no"?><!DOCTYPE svg PUBLIC "-//W3C//DTD SVG 1.1//EN" "http://www.w3.org/Graphics/SVG/1.1/DTD/svg11.dtd"><svg t="1550483534761" class="icon" style="" viewBox="0 0 1024 1024" version="1.1" xmlns="http://www.w3.org/2000/svg" p-id="27470" xmlns:xlink="http://www.w3.org/1999/xlink" width="300" height="300"><defs><style type="text/css"></style></defs><path d="M858.14175893 262.96735147c-5.83822293-4.8003168-13.2333056-7.39508267-20.75812693-7.39508267-9.98984853 0-19.2012672 4.41110187-25.55844267 12.19539947-5.57874667 6.74639147-8.17351253 15.30911787-7.26534506 24.1313216 0.90816853 8.82220373 5.18953173 16.60650133 11.9359232 22.185248 59.93909013 48.7815968 94.18999893 120.9160864 94.18999893 197.98063146 0 77.19428267-34.38064747 149.32877227-94.3197376 197.9806304-6.87612907 5.57874667-11.02775467 13.36304427-11.93592213 22.185248-0.90816853 8.69246507 1.68659733 17.3849312 7.265344 24.13132267 5.70848427 7.00586773 14.01173547 11.28723093 22.96367786 12.0656608l0.1297376 0.25947627h2.59476587c7.52482133 0 14.79016533-2.59476587 20.75812693-7.39508267 75.37794667-61.3662112 118.58079787-152.1830144 118.5807968-249.09751787 0-97.17397973-43.2028512-187.99078293-118.5807968-249.22725546zM749.16159467 397.11674347c-5.83822293-4.8003168-13.2333056-7.39508267-20.75812587-7.39508267-9.98984853 0-19.2012672 4.41110187-25.55844373 12.19539947-5.57874667 6.74639147-8.17351253 15.30911787-7.265344 24.13132266 0.90816853 8.82220373 5.18953173 16.60650133 11.93592213 22.18524694 19.3310048 15.6983328 30.35875947 38.92148693 30.35876053 63.83123946 0 24.78001387-11.02775467 48.1329056-30.35876053 63.8312384-14.01173547 11.4169696-16.2172864 32.17509653-4.8003168 46.3165696 5.449008 6.6166528 13.10356693 10.7682784 21.40681813 11.80618454v0.38921493h4.1516256c7.65455893 0 14.79016533-2.59476587 20.75812587-7.39508267 34.76986133-28.2829472 54.7495584-70.18841493 54.74955947-114.9481248 0.12973867-44.75970987-19.8499584-86.6651776-54.6198208-114.94812586zM520.9519424 87.6909216h-4.1516256v0.1297376c-13.7522592 1.03790613-27.50451733 7.265344-40.99730027 18.68231467l-234.82630506 199.6672288H137.83477013c-49.9492416 0-90.55732693 40.60808533-90.55732586 90.55732586v230.41520427c0 49.9492416 40.60808533 90.55732693 90.55732586 90.55732693h103.14194134l234.95604373 199.6672288c14.66042667 12.45487573 29.83980693 18.81205227 45.0191872 18.81205227 16.99571627 0 32.4345728-8.30325013 42.03520533-22.7042016 7.39508267-11.02775467 11.02775467-25.03949013 11.02775467-41.5162528v-720.04751147c0-44.37049493-26.72608747-64.22045333-53.06296-64.22045333zM220.08884693 651.92274667H137.83477013c-13.62252053 0-24.6502752-11.02775467-24.6502752-24.6502752V396.72752853c0-13.62252053 11.02775467-24.6502752 24.6502752-24.6502752h82.2540768v279.84549334z m288.0190048 206.54335786L285.99589867 669.56715413v-315.26404586l222.11195306-188.89895147V858.46610453z" p-id="27471"></path></svg>