<?xml version="1.0" standalone="no"?><!DOCTYPE svg PUBLIC "-//W3C//DTD SVG 1.1//EN" "http://www.w3.org/Graphics/SVG/1.1/DTD/svg11.dtd"><svg t="1550483658914" class="icon" style="" viewBox="0 0 1024 1024" version="1.1" xmlns="http://www.w3.org/2000/svg" p-id="30037" xmlns:xlink="http://www.w3.org/1999/xlink" width="300" height="300"><defs><style type="text/css"></style></defs><path d="M901.800242 407.691402h-259.37778a22.592861 22.592861 0 0 1-15.55093-7.041931l-1.760483-1.467068-1.467069-1.760483A22.299447 22.299447 0 0 1 616.308636 381.577576V122.199796a33.449171 33.449171 0 0 1 65.431272 0v173.700957L971.045893 6.594768a29.341378 29.341378 0 0 1 41.664757 4.694621 29.341378 29.341378 0 0 1 4.69462 41.664756l-289.305985 289.305985h173.700957a29.341378 29.341378 0 0 1 25.820412 32.568929 29.341378 29.341378 0 0 1-25.820412 32.862343M122.199835 616.308598H381.577614a22.592861 22.592861 0 0 1 15.55093 7.041931l1.760483 1.467068 1.467069 1.760483a22.299447 22.299447 0 0 1 7.04193 15.55093v259.37778a29.341378 29.341378 0 0 1-32.568929 25.820412 29.341378 29.341378 0 0 1-32.568929-25.820412v-173.407543L52.954183 1017.405232a29.341378 29.341378 0 0 1-41.664756-4.694621 29.341378 29.341378 0 0 1-4.694621-41.664756l289.305985-289.305985H122.199835a33.742584 33.742584 0 0 1 0-65.431272" fill="#040404" p-id="30038"></path></svg>