<?xml version="1.0" standalone="no"?><!DOCTYPE svg PUBLIC "-//W3C//DTD SVG 1.1//EN" "http://www.w3.org/Graphics/SVG/1.1/DTD/svg11.dtd"><svg t="1549543190797" class="icon" style="" viewBox="0 0 1024 1024" version="1.1" xmlns="http://www.w3.org/2000/svg" p-id="3795" xmlns:xlink="http://www.w3.org/1999/xlink" width="200" height="200"><defs><style type="text/css"></style></defs><path d="M97.313862 927.669319c-5.108445 0-10.095261-2.067704-13.86578-5.716593-4.013778-3.892149-5.959853-9.365483-5.716594-14.960447l11.676447-198.621214c0.243259-4.743556 2.310963-9.243853 5.716593-12.649483L687.096021 103.750089c3.648889-3.648889 8.635705-5.716593 13.86578-5.716593 5.230075 0 10.21689 2.067704 13.86578 5.716593l186.823138 186.823138c3.648889 3.648889 5.716593 8.635705 5.716593 13.86578 0 5.230075-2.067704 10.21689-5.716593 13.86578L309.679226 910.27628c-3.40563 3.40563-7.905927 5.473334-12.649484 5.716593l-198.499584 11.676446h-1.216296z m30.89393-209.567882l-9.973631 169.308469 169.06521-9.973631 572.875638-572.875638-159.213208-159.334838-572.754009 572.875638z m0 0" fill="" p-id="3796"></path><path d="M782.453665 410.621689c-4.986816 0-9.973631-1.946074-13.86578-5.716593L600.617342 236.934553c-7.662668-7.662668-7.662668-19.947262 0-27.60993 7.662668-7.662668 19.947262-7.662668 27.60993 0l167.970543 167.970543c7.662668 7.662668 7.662668 20.068892 0 27.60993-3.770519 3.770519-8.757335 5.716593-13.74415 5.716593z m0 0" fill="" p-id="3797"></path><path d="M233.417437 791.687374c-4.986816 0-9.973631-1.946074-13.86578-5.716594-7.662668-7.662668-7.662668-20.068892 0-27.60993l462.07103-462.071029c7.662668-7.662668 19.947262-7.662668 27.60993 0 7.662668 7.662668 7.662668 19.947262 0 27.60993L247.161587 785.97078c-3.770519 3.770519-8.757335 5.716593-13.74415 5.716594z m0 0M119.450457 810.904858c-2.675852 0-5.351704 0.12163-8.149186 0.364889-2.554223 0.243259-4.865186 1.094667-7.297779 1.459556l-5.716593 96.45231 92.438532-5.594964c0.729778-3.52726 1.702815-6.93289 2.067704-10.703409 4.378667-46.949044-27.974819-81.978382-73.342678-81.978382z m0 0M926.706426 921.344578H489.934363c-10.825039 0-19.582373-8.757335-19.582373-19.582373 0-10.825039 8.757335-19.582373 19.582373-19.582374h436.772063c10.825039 0 19.582373 8.757335 19.582373 19.582374-0.12163 10.825039-8.878964 19.582373-19.582373 19.582373z m0 0" fill="" p-id="3798"></path></svg>