<?xml version="1.0" standalone="no"?><!DOCTYPE svg PUBLIC "-//W3C//DTD SVG 1.1//EN" "http://www.w3.org/Graphics/SVG/1.1/DTD/svg11.dtd"><svg t="1549642579383" class="icon" style="" viewBox="0 0 1024 1024" version="1.1" xmlns="http://www.w3.org/2000/svg" p-id="1981" xmlns:xlink="http://www.w3.org/1999/xlink" width="300" height="300"><defs><style type="text/css"></style></defs><path d="M512 6.120989c-279.644045 0-506.247191 226.557124-506.247191 506.212674C5.752809 791.931685 232.355955 1018.615371 512 1018.615371S1018.247191 791.931685 1018.247191 512.333663C1018.247191 232.678112 791.575011 6.120989 512 6.120989zM217.433169 441.965303c0-51.591191 41.822921-93.402607 93.402607-93.402607s93.402607 41.822921 93.402607 93.402607c0 51.591191-41.822921 93.414112-93.402607 93.414112S217.433169 493.556494 217.433169 441.965303zM712.600449 775.098966c-12.782742 17.212404-37.15164 20.882697-54.295011 8.030921-41.132584-30.443865-91.377618-48.542202-146.305438-48.542202s-105.10382 18.167371-146.305438 48.542202c-17.212404 12.782742-41.569798 9.181483-54.421573-8.030921-12.782742-17.281438-9.169978-41.581303 8.030921-54.421573C372.977618 680.67236 439.790742 656.556584 512 656.556584s139.022382 24.115775 192.627056 64.109303C721.839461 733.517663 725.452225 757.817528 712.600449 775.098966zM759.877034 522.861303c-28.902112 16.683146-64.500494 16.683146-93.402607 0-28.902112-16.683146-46.701303-47.518202-46.701303-80.896s17.799191-64.212854 46.701303-80.896c28.902112-16.683146 64.500494-16.683146 93.402607 0 28.902112 16.683146 46.701303 47.518202 46.701303 80.896S788.76764 506.166652 759.877034 522.861303z" p-id="1982" fill="#c4463a"></path></svg>