<?xml version="1.0" standalone="no"?><!DOCTYPE svg PUBLIC "-//W3C//DTD SVG 1.1//EN" "http://www.w3.org/Graphics/SVG/1.1/DTD/svg11.dtd"><svg t="1550050046679" class="icon" style="" viewBox="0 0 1024 1024" version="1.1" xmlns="http://www.w3.org/2000/svg" p-id="3146" xmlns:xlink="http://www.w3.org/1999/xlink" width="300" height="300"><defs><style type="text/css"></style></defs><path d="M512 230.4c10.24-20.48 23.04-40.96 35.84-58.88 43.52-51.2 97.28-87.04 163.84-94.72 71.68-7.68 138.24 12.8 192 58.88 48.64 40.96 76.8 94.72 92.16 156.16 7.68 35.84 12.8 69.12 12.8 104.96 0 38.4-12.8 71.68-28.16 107.52-25.6 53.76-61.44 102.4-99.84 145.92-89.6 102.4-194.56 192-309.76 266.24-15.36 10.24-33.28 20.48-48.64 28.16-7.68 2.56-12.8 5.12-20.48 0-25.6-15.36-51.2-30.72-76.8-48.64-84.48-58.88-163.84-125.44-238.08-199.68-48.64-48.64-94.72-102.4-128-161.28-20.48-33.28-35.84-69.12-43.52-107.52-5.12-23.04-2.56-48.64-2.56-71.68 2.56-43.52 12.8-87.04 33.28-128 33.28-69.12 87.04-120.32 161.28-143.36 102.4-33.28 209.92 5.12 271.36 92.16 10.24 15.36 20.48 30.72 28.16 46.08C509.44 225.28 512 227.84 512 230.4L512 230.4zM512 230.4" p-id="3147" fill="#c4463a"></path></svg>