<?xml version="1.0" standalone="no"?><!DOCTYPE svg PUBLIC "-//W3C//DTD SVG 1.1//EN" "http://www.w3.org/Graphics/SVG/1.1/DTD/svg11.dtd"><svg fill="#c4463a" t="1549601183843" class="icon" style="" viewBox="0 0 1024 1024" version="1.1" xmlns="http://www.w3.org/2000/svg" p-id="2523" xmlns:xlink="http://www.w3.org/1999/xlink" width="200" height="200"><defs><style type="text/css"></style></defs><path d="M745.801419 851.351871c9.537214 16.141632 4.196579 37.642319-12.421914 46.705742-16.420995 9.53926-37.201274 3.917216-46.508243-12.487406-9.997702-16.126282-4.131087-37.151132 11.960403-46.671972C715.71417 829.358975 736.33072 835.226612 745.801419 851.351871L745.801419 851.351871zM544.09958 924.211273 544.09958 924.211273c0 18.600637-15.46932 34.252105-34.676777 34.252105-18.649755 0-34.249035-15.174608-34.249035-34.252105l0-23.957645c0-19.060101 15.600303-34.233686 34.249035-34.233686 19.009959 0 34.676777 15.173584 34.676777 34.233686L544.09958 924.211273 544.09958 924.211273zM332.827783 885.570207 332.827783 885.570207c-9.800203 16.895809-30.809703 22.272259-46.934962 12.732999-16.651238-9.309016-22.51683-30.30112-12.716626-46.951335l25.433252-44.493354c9.767458-16.402575 30.777981-22.008246 47.394427-12.715603 16.191774 9.553587 22.025643 30.807656 12.258185 46.933939L332.827783 885.570207 332.827783 885.570207zM169.046602 747.189533 169.046602 747.189533c-16.650215 9.31004-37.921681 3.671623-46.966685-12.731976-9.767458-16.125259-4.195555-37.414121 12.192693-46.918589l68.50114-39.627533c16.322757-9.028631 37.625946-3.916193 46.902216 12.701277 9.276271 16.159028 3.736091 37.429471-12.684904 46.966685L169.046602 747.189533 169.046602 747.189533zM96.121709 544.981159 96.121709 544.981159c-19.010983 0-34.18559-15.421224-34.18559-34.251082 0-19.075451 15.174608-34.479279 34.18559-34.479279l106.652042 0c19.042705 0 34.217313 15.403828 34.217313 34.251082 0 19.058055-15.174608 34.479279-34.217313 34.479279L96.121709 544.981159 96.121709 544.981159zM134.271588 333.478094 134.271588 333.478094c-16.650215-9.323343-21.959128-30.349215-12.192693-46.704718 9.045003-16.651238 30.316469-22.255887 46.966685-12.717649l115.829052 67.239404c16.419971 9.275247 21.796422 30.30112 12.749372 46.442752-9.800203 16.650215-30.807656 22.024619-46.934962 12.700253L134.271588 333.478094 134.271588 333.478094zM273.176195 169.633469 273.176195 169.633469l80.661088 140.115178c9.865695 16.35448 30.775934 22.25384 47.230698 12.471033 16.387225-9.30697 21.728884-30.56411 12.19167-46.934962l-80.9558-139.871631c-9.275247-16.124236-30.284747-22.024619-46.411029-12.487406C269.241582 132.464941 263.867178 153.507186 273.176195 169.633469L273.176195 169.633469zM475.173768 97.247858 475.173768 97.247858c0-18.550495 15.600303-34.479279 34.249035-34.479279 19.009959 0 34.676777 15.404852 34.676777 34.479279l0 161.386644c0 19.076474-15.46932 34.463929-34.676777 34.725896-18.649755 0-34.249035-15.174608-34.249035-34.725896L475.173768 97.247858 475.173768 97.247858zM686.379051 135.414109 686.379051 135.414109c9.79918-16.649192 30.580482-22.024619 47.001477-12.715603 16.617469 9.292644 22.451338 30.317493 12.650111 46.934962l-80.9558 140.115178c-8.979512 16.35448-30.513968 22.25384-46.835701 12.716626-16.45374-9.552563-21.829168-30.80868-12.521175-47.179532L686.379051 135.414109 686.379051 135.414109zM850.71691 274.05675 850.71691 274.05675l-140.345422 80.939427c-16.388249 9.275247-21.991874 30.30112-12.748349 46.934962 9.79918 16.125259 30.874171 21.500687 46.967708 12.472056l140.40989-80.924077c16.059767-9.323343 21.926382-30.349215 12.226462-46.704718C887.949906 270.122137 866.875938 264.255523 850.71691 274.05675L850.71691 274.05675zM922.855904 476.250798 922.855904 476.250798c19.304671 0 34.482349 15.403828 34.253128 34.479279 0 18.829857-14.947434 34.251082-34.253128 34.251082L761.20627 544.981159c-18.550495 0-34.184567-15.421224-34.184567-34.479279 0-18.84623 15.634072-34.251082 34.184567-34.251082L922.855904 476.250798 922.855904 476.250798z" p-id="2524" fill="#515151"></path></svg>