<?xml version="1.0" standalone="no"?><!DOCTYPE svg PUBLIC "-//W3C//DTD SVG 1.1//EN" "http://www.w3.org/Graphics/SVG/1.1/DTD/svg11.dtd"><svg t="1549375356770" class="icon" style="" viewBox="0 0 1024 1024" version="1.1" xmlns="http://www.w3.org/2000/svg" p-id="9200" xmlns:xlink="http://www.w3.org/1999/xlink" width="200" height="200"><defs><style type="text/css"></style></defs><path d="M800 432h-48v-144a240 240 0 0 0-480 0v144h-48a96 96 0 0 0-96 96v352a96 96 0 0 0 96 96h576a96 96 0 0 0 96-96V528a96 96 0 0 0-96-96z m-464-144a176 176 0 0 1 352 0v144H336z m496 592a32 32 0 0 1-32 32H224a32 32 0 0 1-32-32V528a32 32 0 0 1 32-32h576a32 32 0 0 1 32 32z" p-id="9201" fill="#c4463a"></path><path d="M512 592a32 32 0 0 0-32 32v160a32 32 0 0 0 64 0V624a32 32 0 0 0-32-32z" p-id="9202" fill="#c4463a"></path></svg>