<?xml version="1.0" standalone="no"?><!DOCTYPE svg PUBLIC "-//W3C//DTD SVG 1.1//EN" "http://www.w3.org/Graphics/SVG/1.1/DTD/svg11.dtd"><svg fill="#c4463a" t="1549383212826" class="icon" style="" viewBox="0 0 1024 1024" version="1.1" xmlns="http://www.w3.org/2000/svg" p-id="12478" xmlns:xlink="http://www.w3.org/1999/xlink" width="200" height="200"><defs><style type="text/css"></style></defs><path d="M511.514953 64.644299c-246.353804 0-445.958888 199.679785-445.958888 445.958888 0 246.300592 199.605084 445.979354 445.958888 445.979354 246.279103 0 445.964004-199.678762 445.964004-445.979354C957.478957 264.325108 757.794056 64.644299 511.514953 64.644299zM793.273105 792.378735c-75.266218 75.267241-175.329191 116.718305-281.758152 116.718305-106.455567 0-206.52775-41.450041-281.781688-116.715235-75.248821-75.260078-116.690676-175.330214-116.690676-281.777595 0-106.437148 41.441854-206.501144 116.689652-281.758152 75.255984-75.264171 175.328168-116.714212 281.782711-116.714212 106.427938 0 206.490911 41.451064 281.758152 116.717282 75.267241 75.266218 116.718305 175.329191 116.718305 281.756105C909.992433 617.040335 868.540346 717.109448 793.273105 792.378735z" p-id="12479" fill="#c4463a"></path><path d="M510.425132 659.254785c20.612457 0 37.238113-16.656355 37.238113-37.158295L547.663244 213.296921c0-20.539802-16.625656-37.160341-37.238113-37.160341-20.466124 0-37.089733 16.620539-37.089733 37.160341l0 408.79957C473.334375 642.59843 489.959008 659.254785 510.425132 659.254785z" p-id="12480" fill="#c4463a"></path><path d="M510.430248 741.187843c-26.594705 0-48.164976 21.574365-48.164976 48.15986 0 26.590612 21.575388 48.164976 48.164976 48.164976 26.64894 0 48.160883-21.574365 48.160883-48.164976C558.590108 762.757091 537.079188 741.187843 510.430248 741.187843z" p-id="12481" fill="#c4463a"></path></svg>