<?xml version="1.0" standalone="no"?><!DOCTYPE svg PUBLIC "-//W3C//DTD SVG 1.1//EN" "http://www.w3.org/Graphics/SVG/1.1/DTD/svg11.dtd"><svg fill="#c4463a" t="1549626769162" class="icon" style="" viewBox="0 0 1024 1024" version="1.1" xmlns="http://www.w3.org/2000/svg" p-id="16171" xmlns:xlink="http://www.w3.org/1999/xlink" width="300" height="300"><defs><style type="text/css"></style></defs><path d="M925.64646 305.160141c-19.216667-45.433772-46.721091-86.231967-81.747839-121.258715-35.026748-35.026748-75.823919-62.530149-121.258715-81.746816-47.056736-19.903306-97.023754-29.996175-148.512429-29.996175L449.870476 72.158437c-51.488675 0-101.455693 10.091846-148.512429 29.996175-45.434795 19.216667-86.23299 46.720068-121.259738 81.746816-35.026748 35.026748-62.530149 75.823919-81.747839 121.258715-19.903306 47.056736-29.995151 97.023754-29.995151 148.514475L68.355319 757.075695c0 18.805298 15.244192 34.04949 34.04949 34.04949s34.04949-15.244192 34.04949-34.04949L136.4543 453.674617c0-172.817997 140.598178-313.416176 313.416176-313.416176l124.257002 0c172.817997 0 313.415153 140.598178 313.415153 313.416176l0 306.125119c0 18.805298 15.243169 34.04949 34.048467 34.04949s34.04949-15.244192 34.04949-34.04949L955.640588 453.674617C955.642634 402.184919 945.550789 352.2179 925.64646 305.160141z" p-id="16172"></path><path d="M269.783934 562.314942c-64.585971 0-117.130697 52.543703-117.130697 117.128651l0 155.267273c0 64.583924 52.544727 117.128651 117.130697 117.128651S386.915655 899.295813 386.915655 834.710866L386.915655 679.443593C386.915655 614.858646 334.369905 562.314942 269.783934 562.314942z" p-id="16173"></path><path d="M750.563886 562.314942c-64.584947 0-117.130697 52.543703-117.130697 117.128651l0 155.267273c0 64.583924 52.54575 117.128651 117.130697 117.128651s117.129674-52.544727 117.129674-117.128651L867.69356 679.443593C867.69356 614.858646 815.148833 562.314942 750.563886 562.314942z" p-id="16174"></path></svg>