<?xml version="1.0" standalone="no"?><!DOCTYPE svg PUBLIC "-//W3C//DTD SVG 1.1//EN" "http://www.w3.org/Graphics/SVG/1.1/DTD/svg11.dtd"><svg fill="#c4463a" t="1549612346944" class="icon" style="" viewBox="0 0 1024 1024" version="1.1" xmlns="http://www.w3.org/2000/svg" p-id="3032" xmlns:xlink="http://www.w3.org/1999/xlink" width="200" height="200"><defs><style type="text/css"></style></defs><path d="M178.218064 943.863652l46.004609-268.227142c2.697571-15.726537-2.516694-31.772458-13.942347-42.910307l-194.878273-189.959807c-28.772692-28.047184-12.896256-76.912853 26.867384-82.690536l269.315404-39.133667c15.790094-2.294844 29.43964-12.21172 36.501852-26.520019l120.440941-244.04094c17.782743-36.03217 69.163307-36.03217 86.946051 0l120.440941 244.04094c7.061212 14.308299 20.711757 24.225375 36.501852 26.520019l269.315404 39.133667c39.76364 5.777483 55.641275 54.643352 26.867384 82.690536l-194.879272 189.959807c-11.425653 11.137849-16.640118 27.183969-13.942347 42.910307l46.004609 268.227142c6.791795 39.60235-34.775422 69.803473-70.33991 51.104951l-240.882881-126.639738c-14.123224-7.424966-30.995585-7.424966-45.118809 0L248.557974 994.968603C212.992487 1013.666126 171.42527 983.466002 178.218064 943.863652zM534.559864 816.804399l238.275849 125.268868c11.855162 6.232974 25.711368-3.8342 23.446303-17.034651l-45.506347-265.32411c-2.697571-15.726537 2.516894-31.772458 13.942347-42.910507l192.768303-187.903401c9.591297-9.348662 4.298685-25.637218-8.956128-27.563112l-266.399981-38.711354c-15.790094-2.294844-29.43964-12.21172-36.501852-26.520019L526.490535 94.706581c-5.927581-12.010457-23.054769-12.010457-28.98235 0l-119.137825 241.399731c-7.061212 14.308299-20.711757 24.225375-36.501852 26.520019L75.469528 401.336886c-13.254813 1.925894-18.547425 18.214451-8.956128 27.563112l192.769502 187.903401c11.425653 11.137849 16.640118 27.183969 13.942347 42.910507L227.718903 925.037816c-2.264065 13.20045 11.592141 23.267625 23.446303 17.034651l238.275649-125.268868C503.564279 809.379633 520.43644 809.379633 534.559864 816.804399z" p-id="3033"></path></svg>