<?xml version="1.0" standalone="no"?><!DOCTYPE svg PUBLIC "-//W3C//DTD SVG 1.1//EN" "http://www.w3.org/Graphics/SVG/1.1/DTD/svg11.dtd"><svg t="1549375955438" class="icon" style="" viewBox="0 0 1024 1024" version="1.1" xmlns="http://www.w3.org/2000/svg" p-id="11378" xmlns:xlink="http://www.w3.org/1999/xlink" width="200" height="200"><defs><style type="text/css"></style></defs><path d="M507.264 873.344c27.072 0 48.96-23.872 48.96-53.376 0-29.504-21.888-53.44-48.96-53.44-27.008-0.128-49.088 23.424-49.6 52.8 0.384 29.696 22.4 53.632 49.6 54.016z" p-id="11379" fill="#c4463a"></path><path d="M728.256 14.848H285.248A88.192 88.192 0 0 0 219.584 43.52 104.96 104.96 0 0 0 192 114.56v798.272c0.128 26.752 10.048 52.288 27.584 71.04 17.536 18.752 41.152 29.056 65.664 28.672H728.32c24.512 0.384 48.128-9.92 65.664-28.672a104.96 104.96 0 0 0 27.584-71.04V114.56a104.96 104.96 0 0 0-27.52-71.04A88.192 88.192 0 0 0 728.192 14.848z m44.48 897.536c-0.64 27.52-20.992 49.728-46.272 50.496H291.648a43.904 43.904 0 0 1-32.192-14.976 52.16 52.16 0 0 1-12.992-35.52V125.824c0.128-26.176 19.648-47.36 43.712-47.36h438.72c24.192 0 43.712 21.376 43.712 47.68l0.128 786.24z" p-id="11380" fill="#c4463a"></path><path d="M343.296 148.288m10.816 0l305.152 0q10.816 0 10.816 10.816l0 42.368q0 10.816-10.816 10.816l-305.152 0q-10.816 0-10.816-10.816l0-42.368q0-10.816 10.816-10.816Z" p-id="11381" fill="#c4463a"></path></svg>