<?xml version="1.0" standalone="no"?><!DOCTYPE svg PUBLIC "-//W3C//DTD SVG 1.1//EN" "http://www.w3.org/Graphics/SVG/1.1/DTD/svg11.dtd"><svg fill="#c4463a" t="1549612397260" class="icon" style="" viewBox="0 0 1024 1024" version="1.1" xmlns="http://www.w3.org/2000/svg" p-id="3868" xmlns:xlink="http://www.w3.org/1999/xlink" width="200" height="200"><defs><style type="text/css"></style></defs><path d="M761.004167 225.676879l-404.533406 0-13.779841 0.116657L534.756283 114.686019c11.985986-6.932899 16.081257-22.270213 9.147334-34.255175-6.932899-11.987009-22.271236-16.081257-34.255175-9.147334l-269.092691 155.665339c-99.44592 11.153014-176.764889 95.509261-176.764889 197.930955l0 332.005556c0 110.010533 89.193415 199.203948 199.203948 199.203948l498.009358 0c110.010533 0 199.203948-89.193415 199.203948-199.203948L960.208115 424.880827C960.208115 314.870294 871.0147 225.676879 761.004167 225.676879zM910.406872 756.886383c0 82.520435-66.88227 149.402705-149.402705 149.402705L262.99481 906.289088c-82.520435 0-149.402705-66.88227-149.402705-149.402705L113.592105 424.880827c0-82.520435 66.88227-149.402705 149.402705-149.402705l498.009358 0c82.520435 0 149.402705 66.88227 149.402705 149.402705L910.406872 756.886383z" p-id="3869"></path><path d="M553.500183 673.884994c-13.745049 0-24.90011 11.155061-24.90011 24.90011 0 13.745049 11.155061 24.90011 24.90011 24.90011 13.745049 0 24.90011-11.155061 24.90011-24.90011C578.401316 685.040055 567.245232 673.884994 553.500183 673.884994z" p-id="3870"></path><path d="M785.904277 474.681046 653.102668 474.681046c-13.745049 0-24.90011 11.155061-24.90011 24.90011 0 13.745049 11.155061 24.90011 24.90011 24.90011l132.802632 0c13.745049 0 24.90011-11.155061 24.90011-24.90011C810.80541 485.83713 799.649326 474.681046 785.904277 474.681046z" p-id="3871"></path><path d="M785.904277 673.884994 653.102668 673.884994c-13.745049 0-24.90011 11.155061-24.90011 24.90011 0 13.745049 11.155061 24.90011 24.90011 24.90011l132.802632 0c13.745049 0 24.90011-11.155061 24.90011-24.90011C810.80541 685.040055 799.649326 673.884994 785.904277 673.884994z" p-id="3872"></path><path d="M553.500183 474.681046c-13.745049 0-24.90011 11.155061-24.90011 24.90011 0 13.745049 11.155061 24.90011 24.90011 24.90011 13.745049 0 24.90011-11.155061 24.90011-24.90011C578.401316 485.83713 567.245232 474.681046 553.500183 474.681046z" p-id="3873"></path><path d="M329.396125 458.080973c-73.340355 0-132.802632 59.462277-132.802632 132.802632s59.462277 132.802632 132.802632 132.802632c73.340355 0 132.802632-59.462277 132.802632-132.802632S402.736481 458.080973 329.396125 458.080973zM329.396125 690.485067c-55.013965 0-99.601462-44.588521-99.601462-99.601462s44.588521-99.601462 99.601462-99.601462c55.012941 0 99.601462 44.588521 99.601462 99.601462S384.41009 690.485067 329.396125 690.485067z" p-id="3874"></path></svg>