<?xml version="1.0" standalone="no"?><!DOCTYPE svg PUBLIC "-//W3C//DTD SVG 1.1//EN" "http://www.w3.org/Graphics/SVG/1.1/DTD/svg11.dtd"><svg fill="#c4463a" t="1549545829799" class="icon" style="" viewBox="0 0 1448 1024" version="1.1" xmlns="http://www.w3.org/2000/svg" p-id="6942" xmlns:xlink="http://www.w3.org/1999/xlink" width="282.8125" height="200"><defs><style type="text/css"></style></defs><path d="M1004.010 506.768c-1.335-6.012-4.676-12.026-9.798-17.369l-412.623-412.401c-14.029-14.029-32.734-14.029-46.763 0s-9.354 37.41 0 46.763l389.021 389.021-389.021 389.021c-14.029 14.029-14.029 32.734 0 46.763s37.41 9.354 46.763 0l412.401-412.401c1.781-1.781 3.34-3.563 4.676-5.567 3.34-4.676 5.121-9.798 5.789-14.919 0-1.113 0.222-2.003 0.222-3.118 0-1.781-0.222-3.786-0.668-5.789z" p-id="6943" fill="#999999"></path></svg>