<?xml version="1.0" standalone="no"?><!DOCTYPE svg PUBLIC "-//W3C//DTD SVG 1.1//EN" "http://www.w3.org/Graphics/SVG/1.1/DTD/svg11.dtd"><svg t="1550211892074" class="icon" style="" viewBox="0 0 1024 1024" version="1.1" xmlns="http://www.w3.org/2000/svg" p-id="3853" xmlns:xlink="http://www.w3.org/1999/xlink" width="200" height="200"><defs><style type="text/css"></style></defs><path d="M769.216 511.936c0-3.712-1.152-7.232-1.856-10.88-0.64-2.368-0.64-4.8-1.408-7.04a50.56 50.56 0 0 0-11.136-17.344l-417.28-417.28a48.96 48.96 0 0 0-68.992-0.96 48.832 48.832 0 0 0 1.024 68.864L654.208 512l-384.64 384.768a48.768 48.768 0 0 0-1.024 68.8 48.768 48.768 0 0 0 68.864-0.96l417.28-417.344a51.2 51.2 0 0 0 11.136-17.344c0.896-2.304 0.896-4.736 1.472-7.04 0.768-3.648 1.92-7.232 1.92-10.944z" p-id="3854" fill="#c4463a"></path></svg>