<?xml version="1.0" standalone="no"?><!DOCTYPE svg PUBLIC "-//W3C//DTD SVG 1.1//EN" "http://www.w3.org/Graphics/SVG/1.1/DTD/svg11.dtd"><svg t="1550402558492" class="icon" style="" viewBox="0 0 1024 1024" version="1.1" xmlns="http://www.w3.org/2000/svg" p-id="4107" xmlns:xlink="http://www.w3.org/1999/xlink" width="300" height="300"><defs><style type="text/css"></style></defs><path d="M656.695652 89.043478c55.652174 20.034783 106.852174 48.973913 151.373913 89.043479 2.226087 4.452174 4.452174 11.130435 4.452174 15.582608 0 6.678261 0 15.582609-2.226087 24.486957 0 4.452174 0 8.904348-2.226087 13.356521-2.226087 22.26087 0 40.069565 4.452174 57.878261 2.226087 11.130435 6.678261 22.26087 13.356522 33.391305s15.582609 24.486957 26.713043 37.843478c13.356522 13.356522 28.93913 24.486957 48.973913 35.617391l13.356522 6.678261c8.904348 4.452174 15.582609 6.678261 22.26087 11.130435 4.452174 4.452174 11.130435 8.904348 11.130434 13.356522 4.452174 28.93913 8.904348 57.878261 8.904348 86.817391 0 28.93913-2.226087 57.878261-8.904348 86.817391-2.226087 4.452174-6.678261 8.904348-13.356521 13.356522-6.678261 4.452174-13.356522 6.678261-20.034783 11.130435-4.452174 2.226087-8.904348 4.452174-13.356522 4.452174-20.034783 8.904348-35.617391 20.034783-46.747826 31.165217-8.904348 8.904348-15.582609 17.808696-22.260869 28.939131-6.678261 11.130435-15.582609 24.486957-20.034783 40.069565-4.452174 17.808696-6.678261 37.843478-4.452174 60.104348 0 4.452174 0 11.130435 2.226087 15.582608 0 8.904348 2.226087 15.582609 2.226087 24.486957 0 6.678261-2.226087 11.130435-4.452174 15.582608-44.521739 40.069565-95.721739 69.008696-151.373913 86.817392h-2.226087c-4.452174 0-8.904348-2.226087-15.582608-4.452174l-20.034783-13.356522-11.130435-8.904348c-17.808696-13.356522-35.617391-20.034783-51.2-24.486956-11.130435-2.226087-24.486957-4.452174-35.617391-4.452174h-4.452174c-11.130435 0-26.713043 0-37.843478 4.452174-17.808696 4.452174-35.617391 13.356522-55.652174 26.713043-4.452174 2.226087-8.904348 4.452174-11.130435 8.904348-6.678261 4.452174-13.356522 11.130435-20.034783 13.356522-6.678261 4.452174-11.130435 4.452174-17.808695 4.452174-55.652174-20.034783-106.852174-48.973913-151.373913-86.817392-2.226087-4.452174-4.452174-11.130435-4.452174-15.582608 0-6.678261 0-15.582609 2.226087-24.486957 0-4.452174 0-8.904348 2.226087-13.356522 2.226087-22.26087 0-40.069565-4.452174-57.87826-2.226087-11.130435-6.678261-22.26087-13.356522-33.391305s-15.582609-24.486957-26.713043-37.843478c-13.356522-15.582609-28.93913-26.713043-51.2-35.617391l-13.356522-6.678261c-8.904348-4.452174-15.582609-6.678261-22.26087-11.130435-4.452174-4.452174-11.130435-8.904348-11.130435-13.356522-8.904348-28.93913-13.356522-57.878261-13.356521-86.817391 0-28.93913 2.226087-57.878261 8.904348-86.817391 2.226087-4.452174 6.678261-8.904348 13.356521-13.356522 6.678261-4.452174 13.356522-6.678261 20.034783-11.130435 4.452174-2.226087 8.904348-4.452174 13.356522-4.452174 20.034783-11.130435 35.617391-20.034783 46.747826-33.391304 8.904348-8.904348 15.582609-17.808696 22.260869-28.939131 6.678261-11.130435 15.582609-24.486957 20.034783-40.069565 4.452174-17.808696 6.678261-37.843478 4.452174-60.104348 0-4.452174 0-11.130435-2.226087-15.582608 0-8.904348-2.226087-15.582609-2.226087-24.486957 0-6.678261 2.226087-11.130435 4.452174-15.582608 44.521739-40.069565 95.721739-69.008696 151.373913-86.817392h2.226087c4.452174 0 8.904348 2.226087 15.582608 4.452174l20.034783 13.356522 11.130435 8.904348c17.808696 13.356522 35.617391 20.034783 51.2 24.486956 11.130435 2.226087 22.26087 4.452174 35.617391 4.452174 13.356522 0 28.93913 0 44.521739-4.452174 17.808696-4.452174 35.617391-13.356522 55.652174-26.713043 4.452174-2.226087 8.904348-4.452174 11.130435-8.904348 6.678261-4.452174 13.356522-11.130435 20.034783-13.356522 11.130435-2.226087 15.582609-4.452174 22.260869-4.452174m11.130435-66.782608h-11.130435c-17.808696 0-35.617391 4.452174-51.2 13.356521-8.904348 6.678261-20.034783 11.130435-26.713043 17.808696l-4.452174 2.226087-2.226087 2.226087h-2.226087c-2.226087 0-2.226087 2.226087-2.226087 2.226087-13.356522 8.904348-22.26087 13.356522-33.391304 15.582609-6.678261 2.226087-17.808696 2.226087-28.939131 2.226086-6.678261 0-11.130435 0-17.808696-2.226086-11.130435-2.226087-20.034783-6.678261-28.93913-13.356522l-11.130435-6.678261c-8.904348-6.678261-17.808696-13.356522-26.713043-17.808696-15.582609-8.904348-31.165217-13.356522-46.747826-13.356521-4.452174 0-8.904348 0-13.356522 2.226086H356.173913l-4.452174 2.226087c-64.556522 22.26087-124.66087 55.652174-175.860869 100.173913l-8.904348 6.678261-6.678261 8.904348c-8.904348 13.356522-13.356522 31.165217-13.356522 48.973913 0 11.130435 2.226087 22.26087 2.226087 31.165218v11.130434c2.226087 13.356522 0 26.713043-2.226087 35.617392-2.226087 4.452174-4.452174 11.130435-8.904348 20.034782-2.226087 2.226087-2.226087 4.452174-4.452174 6.678261-2.226087 4.452174-6.678261 8.904348-11.130434 13.356522-4.452174 4.452174-15.582609 11.130435-28.939131 20.034783-2.226087 0-2.226087 2.226087-4.452174 2.226086s-2.226087 0-4.452174 2.226087c-8.904348 4.452174-20.034783 8.904348-28.93913 13.356522-8.904348 4.452174-33.391304 17.808696-42.295652 48.973913l-2.226087 4.452174v4.452174C4.452174 445.217391 0 478.608696 0 512s2.226087 66.782609 8.904348 100.173913l2.226087 6.678261 2.226087 4.452174c6.678261 17.808696 20.034783 31.165217 37.843478 44.521739h2.226087l2.226087 2.226087c8.904348 4.452174 15.582609 6.678261 22.260869 11.130435l2.226087 2.226087c6.678261 4.452174 13.356522 6.678261 17.808696 8.904347 11.130435 4.452174 20.034783 11.130435 26.713044 20.034783 4.452174 6.678261 11.130435 13.356522 15.582608 22.26087 2.226087 4.452174 4.452174 11.130435 6.678261 15.582608 2.226087 8.904348 2.226087 20.034783 2.226087 33.391305v15.582608c0 8.904348-2.226087 20.034783-2.226087 31.165218 0 17.808696 4.452174 35.617391 13.356522 51.2l4.452174 8.904348 8.904348 6.67826c51.2 44.521739 109.078261 77.913043 173.634782 100.173914l11.130435 4.452173h11.130435c17.808696 0 35.617391-4.452174 51.2-13.356521 8.904348-6.678261 20.034783-11.130435 26.713043-17.808696l4.452174-2.226087 2.226087-2.226087h2.226087c2.226087 0 2.226087-2.226087 2.226087-2.226087 11.130435-8.904348 22.26087-13.356522 31.165217-15.582609 6.678261-2.226087 15.582609-2.226087 24.486957-2.226086h4.452174c6.678261 0 13.356522 0 17.808696 2.226086 11.130435 2.226087 20.034783 6.678261 28.93913 13.356522l11.130435 6.678261c8.904348 6.678261 17.808696 13.356522 26.713043 17.808696 15.582609 8.904348 31.165217 13.356522 46.747826 13.356521 4.452174 0 8.904348 0 13.356522-2.226086h4.452174l4.452174-2.226087c64.556522-22.26087 124.66087-55.652174 175.860869-100.173913l6.678261-6.678261 4.452174-8.904348c8.904348-15.582609 13.356522-33.391304 13.356522-51.2 0-11.130435-2.226087-22.26087-2.226087-31.165218v-4.452173V785.808696c-2.226087-13.356522 0-26.713043 2.226087-35.617392 2.226087-4.452174 4.452174-11.130435 8.904348-20.034782 2.226087-2.226087 2.226087-4.452174 4.452174-6.678261 2.226087-4.452174 6.678261-8.904348 11.130434-13.356522 6.678261-6.678261 15.582609-13.356522 26.713044-17.808696 2.226087 0 4.452174-2.226087 6.678261-2.226086 2.226087 0 2.226087 0 4.452174-2.226087 8.904348-4.452174 20.034783-8.904348 28.93913-13.356522 8.904348-4.452174 33.391304-17.808696 42.295652-48.973913l2.226087-4.452174v-4.452174c6.678261-33.391304 8.904348-66.782609 8.904348-100.173913s-2.226087-66.782609-8.904348-100.173913l-2.226087-6.678261 4.452174-8.904348c-6.678261-17.808696-20.034783-31.165217-37.843478-44.521739l-2.226087-2.226087-2.226087-2.226087c-8.904348-4.452174-15.582609-6.678261-22.260869-11.130435l-2.226087-2.226087c-6.678261-2.226087-11.130435-6.678261-15.582609-6.67826-13.356522-6.678261-22.26087-13.356522-28.939131-20.034783-4.452174-6.678261-11.130435-13.356522-15.582608-22.26087-2.226087-4.452174-4.452174-11.130435-6.678261-15.582608-2.226087-8.904348-2.226087-20.034783-2.226087-33.391305v-15.582608c0-8.904348 2.226087-20.034783 2.226087-31.165218 0-17.808696-4.452174-35.617391-13.356522-51.2l-4.452174-8.904348-6.678261-6.67826c-48.973913-44.521739-109.078261-77.913043-173.634782-102.4L667.826087 22.26087z" p-id="4108" fill="#c4463a"></path><path d="M556.521739 325.008696c0 11.130435 6.678261 22.26087 15.582609 28.93913 11.130435 6.678261 22.26087 6.678261 33.391304 0s15.582609-17.808696 15.582609-28.93913-6.678261-22.26087-15.582609-28.939131c-11.130435-6.678261-22.26087-6.678261-33.391304 0-8.904348 6.678261-15.582609 17.808696-15.582609 28.939131M623.304348 394.017391c0 11.130435 6.678261 22.26087 15.582609 28.939131 11.130435 6.678261 22.26087 6.678261 33.391304 0s15.582609-17.808696 15.582609-28.939131-6.678261-22.26087-15.582609-28.93913c-11.130435-6.678261-22.26087-6.678261-33.391304 0-8.904348 6.678261-15.582609 17.808696-15.582609 28.93913M672.278261 500.869565c0 17.808696 15.582609 33.391304 33.391304 33.391305s33.391304-15.582609 33.391305-33.391305-15.582609-33.391304-33.391305-33.391304-33.391304 13.356522-33.391304 33.391304" p-id="4109" fill="#c4463a"></path><path d="M512 727.930435c-122.434783 0-222.608696-100.173913-222.608696-222.608696 0-102.4 69.008696-191.443478 171.408696-215.930435 17.808696-4.452174 35.617391 6.678261 40.069565 24.486957 4.452174 17.808696-6.678261 35.617391-24.486956 40.069565-71.234783 17.808696-120.208696 80.13913-120.208696 151.373913 0 86.817391 69.008696 155.826087 155.826087 155.826087 53.426087 0 102.4-26.713043 131.33913-73.460869 8.904348-15.582609 31.165217-20.034783 46.747827-11.130435 15.582609 8.904348 20.034783 31.165217 11.130434 46.747826-42.295652 66.782609-113.530435 104.626087-189.217391 104.626087z" p-id="4110" fill="#c4463a"></path></svg>