<?xml version="1.0" standalone="no"?><!DOCTYPE svg PUBLIC "-//W3C//DTD SVG 1.1//EN" "http://www.w3.org/Graphics/SVG/1.1/DTD/svg11.dtd"><svg t="1549642617038" class="icon" style="" viewBox="0 0 1024 1024" version="1.1" xmlns="http://www.w3.org/2000/svg" p-id="3420" xmlns:xlink="http://www.w3.org/1999/xlink" width="300" height="300"><defs><style type="text/css"></style></defs><path d="M512 0C227.555556 0 0 227.555556 0 512s227.555556 512 512 512 512-227.555556 512-512-227.555556-512-512-512z m119.466667 307.2c11.377778-11.377778 28.444444-17.066667 39.822222-17.066667 17.066667 0 28.444444 5.688889 39.822222 17.066667 11.377778 11.377778 17.066667 28.444444 17.066667 39.822222 0 22.755556-11.377778 39.822222-28.444445 51.2-17.066667 11.377778-39.822222 11.377778-62.577777 0s-28.444444-28.444444-28.444445-51.2c5.688889-11.377778 11.377778-28.444444 22.755556-39.822222z m-324.266667 0c11.377778-11.377778 28.444444-17.066667 39.822222-17.066667 17.066667 0 28.444444 5.688889 39.822222 17.066667s17.066667 28.444444 17.066667 39.822222c0 34.133333-28.444444 62.577778-62.577778 62.577778s-51.2-28.444444-51.2-62.577778c0-11.377778 5.688889-28.444444 17.066667-39.822222zM512 870.4c-170.666667 0-312.888889-119.466667-341.333333-267.377778-5.688889-34.133333 22.755556-45.511111 51.2-39.822222 91.022222 28.444444 193.422222 39.822222 290.133333 39.822222 96.711111 0 193.422222-11.377778 290.133333-39.822222 28.444444-5.688889 56.888889 0 51.2 34.133333-28.444444 147.911111-170.666667 273.066667-341.333333 273.066667z" p-id="3421" fill="#c4463a"></path></svg>