<?xml version="1.0" standalone="no"?><!DOCTYPE svg PUBLIC "-//W3C//DTD SVG 1.1//EN" "http://www.w3.org/Graphics/SVG/1.1/DTD/svg11.dtd"><svg t="1549626670724" class="icon" style="" viewBox="0 0 1046 1024" version="1.1" xmlns="http://www.w3.org/2000/svg" p-id="14062" xmlns:xlink="http://www.w3.org/1999/xlink" width="306.4453125" height="300"><defs><style type="text/css"></style></defs><path d="M700.052972 456.316384l-138.154667-0.089672 0.676881-400.060023L480.227073 56.40678 479.746893 456.466802l-134.684927 0 176.621198 309.950915L700.052972 456.316384M927.084475 656.744136l0 161.612655c0 45.323571-41.647006 87.864407-85.888723 87.864407L199.800045 906.221198c-44.240271 0-84.440949-42.540836-84.440949-87.864407l0-161.612655L35.664994 656.744136l0 181.890169C40.978802 929.988701 130.892655 985.465492 184.824768 985.420655l670.796655 0c64.72461 1.939525 154.425853-59.770938 154.425853-127.98409l0-200.692429L927.084475 656.744136z" p-id="14063"></path></svg>