<?xml version="1.0" standalone="no"?><!DOCTYPE svg PUBLIC "-//W3C//DTD SVG 1.1//EN" "http://www.w3.org/Graphics/SVG/1.1/DTD/svg11.dtd"><svg t="1549612319573" class="icon" style="" viewBox="0 0 1024 1024" version="1.1" xmlns="http://www.w3.org/2000/svg" p-id="2160" xmlns:xlink="http://www.w3.org/1999/xlink" width="200" height="200"><defs><style type="text/css"></style></defs><path d="M798.1 673.9s8.9 20.7 0 47.4-47.4 47.4-47.4 47.4H323.9c-37.9 0-47.4-57.4-47.4-47.4v-47.4c0-36.8-47.4-36.8-47.4 0v47.4c0 15.8 30.2 94.8 94.8 94.8h426.7c17.2 0 94.8-25.7 94.8-94.8v-47.4c0.1-36.8-47.3-36.8-47.3 0z" fill="" p-id="2161"></path><path d="M313 474.7l203.6 178.2c3.3 2.9 7.5 4.7 11.9 5 4.4 0.3 12.9 0.3 17.2 0 4.4-0.3 8.6-2.1 11.9-5l204-178.2c8.5-7.4 9.4-20.3 1.9-28.8-7.4-8.5-20.3-9.4-28.8-1.9L561.3 595.4V244.2c0-11.3-9.2-20.4-20.4-20.4s-20.4 9.2-20.4 20.4V602L339.9 443.9c-8.5-7.4-21.4-6.6-28.8 1.9-7.5 8.5-6.6 21.4 1.9 28.9z" fill="" p-id="2162"></path></svg>