<?xml version="1.0" standalone="no"?><!DOCTYPE svg PUBLIC "-//W3C//DTD SVG 1.1//EN" "http://www.w3.org/Graphics/SVG/1.1/DTD/svg11.dtd"><svg t="1549375786556" class="icon" style="" viewBox="0 0 1024 1024" version="1.1" xmlns="http://www.w3.org/2000/svg" p-id="10173" xmlns:xlink="http://www.w3.org/1999/xlink" width="200" height="200"><defs><style type="text/css"></style></defs><path d="M834.446 213.447H194.105c-50.176 0-91.022 40.846-91.022 91.022v423.026c0 50.176 40.846 91.022 91.022 91.022h640.341c50.176 0 91.022-40.846 91.022-91.022V304.469c0-50.176-40.846-91.022-91.022-91.022z m36.409 514.048c0 20.025-16.384 36.409-36.409 36.409H194.105c-20.025 0-36.409-16.384-36.409-36.409V304.469c0-20.025 16.384-36.409 36.409-36.409h640.341c20.025 0 36.409 16.384 36.409 36.409v423.026z" fill="#cdcdcd" p-id="10174"></path><path d="M786.773 358.059L514.275 529.977 241.777 358.059c-12.743-8.078-29.582-4.21-37.661 8.533-8.078 12.743-4.21 29.582 8.533 37.661l286.72 180.907c4.551 2.845 9.557 4.21 14.563 4.21h0.91c5.006 0 10.013-1.365 14.563-4.21l286.72-180.907c12.743-8.078 16.611-24.917 8.533-37.661-8.306-12.857-25.145-16.611-37.888-8.533z" fill="#cdcdcd" p-id="10175"></path></svg>