<?xml version="1.0" standalone="no"?><!DOCTYPE svg PUBLIC "-//W3C//DTD SVG 1.1//EN" "http://www.w3.org/Graphics/SVG/1.1/DTD/svg11.dtd"><svg t="1549369734265" class="icon" style="" viewBox="0 0 1385 1024" version="1.1" xmlns="http://www.w3.org/2000/svg" p-id="5666" xmlns:xlink="http://www.w3.org/1999/xlink" width="270.5078125" height="200"><defs><style type="text/css"></style></defs><path d="M180.705882 120.470588c-36.141176 0-60.235294 24.094118-60.235294 60.235294v662.588236c0 36.141176 24.094118 60.235294 60.235294 60.235294h1024c36.141176 0 60.235294-24.094118 60.235294-60.235294V180.705882c0-36.141176-24.094118-60.235294-60.235294-60.235294H180.705882z m0-120.470588h1024c102.4 0 180.705882 78.305882 180.705883 180.705882v662.588236c0 102.4-78.305882 180.705882-180.705883 180.705882H180.705882c-102.4 0-180.705882-78.305882-180.705882-180.705882V180.705882c0-102.4 78.305882-180.705882 180.705882-180.705882z" fill="#e6a0a1" p-id="5667"></path><path d="M24.094118 168.658824l72.282353-96.376471 481.882353 367.435294c36.141176 30.117647 78.305882 42.164706 114.447058 42.164706 36.141176 0 78.305882-12.047059 114.447059-42.164706l481.882353-367.435294 72.282353 96.376471-481.882353 367.435294c-60.235294 42.164706-120.470588 66.258824-186.729412 66.258823s-126.494118-24.094118-186.729411-66.258823l-481.882353-367.435294z" fill="#e6a0a1" p-id="5668"></path></svg>