<?xml version="1.0" standalone="no"?><!DOCTYPE svg PUBLIC "-//W3C//DTD SVG 1.1//EN" "http://www.w3.org/Graphics/SVG/1.1/DTD/svg11.dtd"><svg t="1549614097160" class="icon" style="" viewBox="0 0 1024 1024" version="1.1" xmlns="http://www.w3.org/2000/svg" p-id="7051" xmlns:xlink="http://www.w3.org/1999/xlink" width="250" height="250"><defs><style type="text/css"></style></defs><path d="M746.24 849.28h-44.16v-320l19.2-7.68a114.56 114.56 0 0 1 40.96-6.4 98.56 98.56 0 0 1 78.08 38.4 30.08 30.08 0 1 1-47.36 37.76 39.68 39.68 0 0 0-30.08-15.36v215.68a138.24 138.24 0 0 0 81.92-30.08 92.8 92.8 0 0 0 27.52-72.96c0-243.2-85.12-324.48-128-363.52A352 352 0 0 0 512 235.52a327.04 327.04 0 0 0-249.6 101.12c-97.28 97.92-110.08 231.04-110.08 348.8a85.12 85.12 0 0 0 24.32 64 154.24 154.24 0 0 0 83.84 35.84V569.6a33.28 33.28 0 0 0-16.64 0 16 16 0 0 0-8.96 10.24 30.08 30.08 0 1 1-55.68-24.32A76.8 76.8 0 0 1 223.36 512a113.28 113.28 0 0 1 80.64 6.4l16 9.6v320h-28.8a243.2 243.2 0 0 1-156.8-56.32 144.64 144.64 0 0 1-42.88-107.52 773.12 773.12 0 0 1 23.04-206.08 409.6 409.6 0 0 1 104.32-185.6 388.48 388.48 0 0 1 150.4-96A423.04 423.04 0 0 1 512 174.72a440.32 440.32 0 0 1 142.72 24.32 362.88 362.88 0 0 1 133.12 78.72 396.8 396.8 0 0 1 91.52 124.16 666.24 666.24 0 0 1 53.12 283.52 152.32 152.32 0 0 1-47.36 117.76 211.84 211.84 0 0 1-138.88 46.08z" fill="#231815" p-id="7052"></path></svg>