<?xml version="1.0" standalone="no"?><!DOCTYPE svg PUBLIC "-//W3C//DTD SVG 1.1//EN" "http://www.w3.org/Graphics/SVG/1.1/DTD/svg11.dtd"><svg t="1549543292746" class="icon" style="" viewBox="0 0 1024 1024" version="1.1" xmlns="http://www.w3.org/2000/svg" p-id="4539" xmlns:xlink="http://www.w3.org/1999/xlink" width="200" height="200"><defs><style type="text/css"></style></defs><path d="M513.28 267.33568c71.75168 0 130.11968 58.368 130.11968 130.11968s-58.368 130.11968-130.11968 130.11968-130.11968-58.368-130.11968-130.11968 58.368-130.11968 130.11968-130.11968m0-40.96c-94.48448 0-171.07968 76.5952-171.07968 171.07968s76.5952 171.07968 171.07968 171.07968 171.07968-76.5952 171.07968-171.07968-76.5952-171.07968-171.07968-171.07968z" p-id="4540"></path><path d="M513.28 114.87232c155.81184 0 282.5728 126.76096 282.5728 282.5728 0 65.28-21.66784 126.60736-62.65856 177.3568l-17.0496 21.11488 12.8 23.93088 102.23616 191.20128-69.44768 1.87392-20.49024 0.55296-11.83744 16.73216-40.12032 56.71936-100.41344-187.74016-13.23008-24.73984-27.84256 3.38944c-12.06272 1.46432-23.35744 2.18112-34.51904 2.18112s-22.45632-0.7168-34.51904-2.18112l-27.84256-3.38944-13.23008 24.73984-100.39296 187.7504-40.12032-56.71936-11.83744-16.73216-20.49024-0.55296-69.44768-1.87392 102.23616-191.20128 12.8-23.93088-17.0496-21.11488c-40.99072-50.75968-62.65856-112.08704-62.65856-177.3568-0.02048-155.82208 126.74048-282.58304 282.55232-282.58304m0-40.96c-178.688 0-323.5328 144.85504-323.5328 323.5328a322.16064 322.16064 0 0 0 71.75168 203.10016L128 850.21696l135.7312 3.65568 78.41792 110.848L473.8048 718.49984c12.94336 1.57696 26.10176 2.47808 39.46496 2.47808s26.5216-0.91136 39.46496-2.47808l131.65568 246.2208 78.41792-110.848 135.7312-3.65568-133.4784-249.67168a322.10944 322.10944 0 0 0 71.75168-203.10016c0-178.67776-144.8448-323.5328-323.5328-323.5328z" p-id="4541"></path><path d="M513.28 114.87232c155.81184 0 282.5728 126.76096 282.5728 282.5728S669.09184 680.02816 513.28 680.02816 230.7072 553.25696 230.7072 397.44512s126.76096-282.5728 282.5728-282.5728m0-40.96c-178.688 0-323.5328 144.85504-323.5328 323.5328s144.85504 323.5328 323.5328 323.5328S836.8128 576.13312 836.8128 397.44512 691.968 73.91232 513.28 73.91232z" p-id="4542"></path></svg>