<?xml version="1.0" standalone="no"?><!DOCTYPE svg PUBLIC "-//W3C//DTD SVG 1.1//EN" "http://www.w3.org/Graphics/SVG/1.1/DTD/svg11.dtd"><svg t="1550489414755" class="icon" style="" viewBox="0 0 1024 1024" version="1.1" xmlns="http://www.w3.org/2000/svg" p-id="4181" xmlns:xlink="http://www.w3.org/1999/xlink" width="300" height="300"><defs><style type="text/css"></style></defs><path d="M511.905731 0A511.992495 511.992495 0 1 1 0.060735 511.992495 511.905731 511.905731 0 0 1 511.905731 0z m78.738043 297.165615l-68.014051 68.022728a96.307688 96.307688 0 0 0-25.083381 92.143031l50.98234-50.930282c0.659404-0.694109 1.36219-1.388219 2.047623-1.995564a69.202714 69.202714 0 0 1 14.55027-21.170339l43.555369-43.555369c24.076922-24.120304 60.474287-26.723214 81.340953-5.813167s18.281108 57.264031-5.795814 81.384335l-43.555369 43.555369a69.471681 69.471681 0 0 1-21.187692 14.489535c-0.633375 0.694109-1.292779 1.388219-1.995565 2.082329l-50.930282 50.930282a95.995339 95.995339 0 0 0 92.09965-25.074705l67.996699-68.022727a96.186219 96.186219 0 1 0-136.01075-136.045456z m-112.879552 317.988899a56.804183 56.804183 0 0 1-4.27745 3.817602 70.070351 70.070351 0 0 1-14.749826 21.777685l-43.572722 43.555369c-24.076922 24.120304-60.49164 26.636451-81.358305 5.813167s-18.220373-57.264031 5.813166-81.384335l43.572722-43.555369a70.66902 70.66902 0 0 1 21.760332-14.83659c1.179986-1.388219 2.464089-2.863202 3.826278-4.251421l48.483547-48.500898a96.203572 96.203572 0 0 0-92.108327 25.074704l-67.996698 68.022728a96.194896 96.194896 0 0 0 136.028102 136.045455l67.996699-68.022728a96.030045 96.030045 0 0 0 25.161468-92.056268l-48.500899 48.500899z m81.089338-198.428543l-13.630574 13.621898-42.305972 42.340677-30.367289 30.36729-42.305972 42.253913-11.175163 11.192515a34.245626 34.245626 0 1 0 48.28399 48.327372l11.183839-11.192515 42.305972-42.340678 30.367289-30.280525 42.297295-42.340677 13.656604-13.621899a34.254302 34.254302 0 1 0-48.301342-48.327371z" fill="#6B8A9D" p-id="4182"></path></svg>