<?xml version="1.0" standalone="no"?><!DOCTYPE svg PUBLIC "-//W3C//DTD SVG 1.1//EN" "http://www.w3.org/Graphics/SVG/1.1/DTD/svg11.dtd"><svg t="1549612342244" class="icon" style="" viewBox="0 0 1024 1024" version="1.1" xmlns="http://www.w3.org/2000/svg" p-id="2907" xmlns:xlink="http://www.w3.org/1999/xlink" width="200" height="200"><defs><style type="text/css"></style></defs><path d="M726.976 45.376c-89.6 0-160.128 44.608-214.912 118.208C457.216 89.984 386.816 45.376 297.152 45.376c-161.536 0-292.928 142.656-292.928 318.016 0 104.64 47.104 178.048 84.864 236.928 109.952 171.264 373.568 356.288 385.152 365.312 11.328 8.64 24.576 12.928 37.632 12.928 13.184 0 26.368-4.352 37.632-12.928 11.776-9.024 275.264-194.048 385.216-365.312 37.76-58.944 84.928-132.288 84.928-236.928C1019.84 188.032 888.32 45.376 726.976 45.376L726.976 45.376 726.976 45.376 726.976 45.376zM893.76 558.976C772.864 755.136 512 923.328 512 923.328s-261.312-168.384-379.392-362.56c-38.144-62.72-75.072-120.448-75.072-201.6 0-140.032 104.576-253.632 233.6-253.632 95.424 0 163.712 62.144 200.128 151.04L491.264 256.128l0.064 0c2.688 9.216 10.624 16 19.968 16 9.408 0 17.28-6.784 19.968-16l0.256 0c36.416-88.704 104.704-150.656 199.872-150.656 129.088 0 233.664 113.6 233.664 253.632C965.184 440.256 933.376 497.216 893.76 558.976L893.76 558.976 893.76 558.976 893.76 558.976zM893.76 558.976" p-id="2908"></path></svg>