<?xml version="1.0" standalone="no"?><!DOCTYPE svg PUBLIC "-//W3C//DTD SVG 1.1//EN" "http://www.w3.org/Graphics/SVG/1.1/DTD/svg11.dtd"><svg t="1549350288773" class="icon" style="" viewBox="0 0 1024 1024" version="1.1" xmlns="http://www.w3.org/2000/svg" p-id="3366" xmlns:xlink="http://www.w3.org/1999/xlink" width="200" height="200"><defs><style type="text/css"></style></defs><path d="M511.965867 605.252267a259.754667 259.754667 0 0 1-185.002667-76.663467c-49.425067-49.425067-76.629333-115.131733-76.629333-185.002667s27.204267-135.5776 76.629333-185.002666a259.9936 259.9936 0 0 1 185.002667-76.629334c69.905067 0 135.611733 27.204267 185.0368 76.629334 49.390933 49.425067 76.629333 115.131733 76.629333 185.002666s-27.2384 135.5776-76.629333 185.002667a259.6864 259.6864 0 0 1-185.0368 76.663467z m0-461.243734a199.850667 199.850667 0 0 0-199.611734 199.5776 199.850667 199.850667 0 0 0 199.611734 199.611734 199.816533 199.816533 0 0 0 199.611733-199.611734 199.816533 199.816533 0 0 0-199.611733-199.5776z m0 0" p-id="3367"></path><path d="M930.645333 942.011733a31.0272 31.0272 0 0 1-30.139733-23.790933A397.653333 397.653333 0 0 0 512 611.6352h-0.4096a398.336 398.336 0 0 0-210.807467 60.347733 30.993067 30.993067 0 1 1-32.836266-52.599466 459.844267 459.844267 0 0 1 243.575466-69.802667H512c53.0432 0 105.028267 8.942933 154.589867 26.5216a459.946667 459.946667 0 0 1 132.9152 74.001067 461.346133 461.346133 0 0 1 161.3824 253.713066 31.095467 31.095467 0 0 1-30.242134 38.1952z m0 0M93.354667 942.011733a31.061333 31.061333 0 0 1-30.208-38.1952 458.6496 458.6496 0 0 1 69.461333-155.5456 31.061333 31.061333 0 0 1 43.178667-7.816533 31.061333 31.061333 0 0 1 7.816533 43.2128 394.410667 394.410667 0 0 0-60.074667 134.519467 31.1296 31.1296 0 0 1-30.173866 23.825066z m0 0" p-id="3368"></path></svg>