<?xml version="1.0" standalone="no"?><!DOCTYPE svg PUBLIC "-//W3C//DTD SVG 1.1//EN" "http://www.w3.org/Graphics/SVG/1.1/DTD/svg11.dtd"><svg t="1549369601480" class="icon" style="" viewBox="0 0 1024 1024" version="1.1" xmlns="http://www.w3.org/2000/svg" p-id="3763" xmlns:xlink="http://www.w3.org/1999/xlink" width="200" height="200"><defs><style type="text/css"></style></defs><path d="M733.3376 64H252.4416c-39.5264 0-71.424 33.536-71.424 74.6752V885.248c0 41.088 31.8976 74.752 71.424 74.752h480.896c39.2704 0 71.0656-33.6384 71.0656-74.752V138.6752C804.4288 97.536 772.5568 64 733.3376 64z m-240.5888 831.2576c-39.6288 0-71.68-33.7664-71.68-75.52 0-41.088 32.0512-74.8288 71.68-74.8288 39.6032 0 71.6544 33.7152 71.6544 74.8288 0 41.728-32.0512 75.52-71.6544 75.52z m222.72-237.696c0 22.9632-17.5104 41.088-39.1424 41.088H309.248c-21.6064 0-39.2704-18.1248-39.2704-41.088V198.4512c0-22.9888 17.664-41.216 39.2704-41.216h367.0784c21.6576 0 39.1424 18.2272 39.1424 41.216v459.1104z m0 0" p-id="3764" fill="#e6a0a1"></path><path d="M458.2912 547.3024a12.288 12.288 0 0 1-5.2736-1.0752 20.736 20.736 0 0 1-8.3712-4.9152l-102.912-97.8944c-7.2192-7.0656-8.5504-17.6128-2.9184-23.6032l16.256-17.1776a13.824 13.824 0 0 1 9.984-4.0448 20.224 20.224 0 0 1 13.7472 5.8112l78.9504 75.2128 151.7568-151.9104a19.6096 19.6096 0 0 1 13.7216-6.0928c3.7632 0 7.1936 1.3312 9.7536 3.8656l16.768 16.6656a14.1568 14.1568 0 0 1 3.6864 11.776 19.968 19.968 0 0 1-5.9392 11.7248l-175.36 175.5904a20.2496 20.2496 0 0 1-13.8496 6.0672z m0 0" p-id="3765" fill="#e6a0a1"></path></svg>