<?xml version="1.0" standalone="no"?><!DOCTYPE svg PUBLIC "-//W3C//DTD SVG 1.1//EN" "http://www.w3.org/Graphics/SVG/1.1/DTD/svg11.dtd"><svg t="1550313920391" class="icon" style="" viewBox="0 0 1024 1024" version="1.1" xmlns="http://www.w3.org/2000/svg" p-id="3049" xmlns:xlink="http://www.w3.org/1999/xlink" width="300" height="300"><defs><style type="text/css"></style></defs><path d="M777.852 536.854l-473.689 473.689c-7.581 7.581-18.053 12.269-29.621 12.269-23.135 0-41.89-18.75500001-41.89-41.89 0-11.56799999 4.689-22.04 12.269-29.621l448.846-448.846-434.434-434.514c-6.915-7.152-11.176-16.908-11.176-27.658 0-21.98799999 17.825-39.81299999 39.813-39.813 10.75099999 0 20.506 4.261 27.669 11.18599999l450.42800001 450.42800001c5.447 5.544 9.262 12.708 10.65799999 20.703-0.864-5.573 0.33-6.291 1.127-5.097 7.558 7.576 12.232 18.032 12.232 29.581 0 11.548-4.67400001 22.005-12.233 29.581z" fill="rgba(255,255,255,0.7)" p-id="3050"></path></svg>