<?xml version="1.0" standalone="no"?><!DOCTYPE svg PUBLIC "-//W3C//DTD SVG 1.1//EN" "http://www.w3.org/Graphics/SVG/1.1/DTD/svg11.dtd"><svg t="1549612441136" class="icon" style="" viewBox="0 0 1024 1024" version="1.1" xmlns="http://www.w3.org/2000/svg" p-id="4618" xmlns:xlink="http://www.w3.org/1999/xlink" width="200" height="200"><defs><style type="text/css"></style></defs><path d="M959.36 720.256c4.032 90.56-58.176 192.064-164.864 253.056-138.944 79.488-300.352 65.536-360.512-43.072-57.92-104.512 3.712-251.392 142.656-330.944 112.192-64.192 238.08-62.976 314.432-6.208L891.072 34.176C891.072 15.296 906.496 0 925.568 0 944.576 0 960 15.296 960 34.176l0 683.008C960 718.272 959.488 719.168 959.36 720.256zM879.488 667.392c-48.128-73.024-180.032-75.584-282.624-14.208-102.592 61.376-151.872 177.984-103.68 251.008 48.128 73.024 175.488 74.88 278.08 13.504C873.856 856.32 927.68 740.48 879.488 667.392zM718.784 307.328 98.432 307.328C79.424 307.328 64 292.032 64 273.216c0-18.88 15.424-34.176 34.432-34.176l620.288 0c19.008 0 34.432 15.296 34.432 34.176C753.216 292.032 737.792 307.328 718.784 307.328zM718.784 102.464 98.432 102.464C79.424 102.464 64 87.168 64 68.288c0-18.88 15.424-34.176 34.432-34.176l620.288 0c19.008 0 34.432 15.296 34.432 34.176C753.216 87.168 737.792 102.464 718.784 102.464zM98.432 443.968l379.072 0C496.576 443.968 512 459.264 512 478.08c0 18.816-15.424 34.176-34.496 34.176L98.432 512.256C79.424 512.256 64 496.96 64 478.08 64 459.264 79.424 443.968 98.432 443.968zM98.432 648.832l206.784 0c19.008 0 34.432 15.296 34.432 34.176 0 18.816-15.424 34.176-34.432 34.176L98.432 717.184C79.424 717.12 64 701.824 64 683.008 64 664.128 79.424 648.832 98.432 648.832z" p-id="4619"></path></svg>